solid OpenSCAD_Model
  facet normal 0.999048 0.0436208 0
    outer loop
      vertex 74.9127 2 1
      vertex 74.7146 6.53668 -1
      vertex 74.7146 6.53668 1
    endloop
  endfacet
  facet normal 0.999048 0.0436208 0
    outer loop
      vertex 74.7146 6.53668 -1
      vertex 74.9127 2 1
      vertex 74.9127 2 -1
    endloop
  endfacet
  facet normal -0.999048 0.0436198 0
    outer loop
      vertex -75 0 -1
      vertex -74.7146 6.53668 1
      vertex -74.7146 6.53668 -1
    endloop
  endfacet
  facet normal -0.999048 0.0436198 0
    outer loop
      vertex -74.7146 6.53668 1
      vertex -75 0 -1
      vertex -75 0 1
    endloop
  endfacet
  facet normal 0.0436198 0.999048 -0
    outer loop
      vertex 6.53668 74.7146 -1
      vertex 0 75 1
      vertex 6.53668 74.7146 1
    endloop
  endfacet
  facet normal 0.0436198 0.999048 0
    outer loop
      vertex 0 75 1
      vertex 6.53668 74.7146 -1
      vertex 0 75 -1
    endloop
  endfacet
  facet normal -0.0436198 -0.999048 0
    outer loop
      vertex -6.53668 -74.7146 -1
      vertex 0 -75 1
      vertex -6.53668 -74.7146 1
    endloop
  endfacet
  facet normal -0.0436198 -0.999048 -0
    outer loop
      vertex 0 -75 1
      vertex -6.53668 -74.7146 -1
      vertex 0 -75 -1
    endloop
  endfacet
  facet normal -0.737278 -0.67559 0
    outer loop
      vertex -53.033 -53.033 -1
      vertex -57.4533 -48.2091 1
      vertex -57.4533 -48.2091 -1
    endloop
  endfacet
  facet normal -0.737278 -0.67559 0
    outer loop
      vertex -57.4533 -48.2091 1
      vertex -53.033 -53.033 -1
      vertex -53.033 -53.033 1
    endloop
  endfacet
  facet normal 0.737278 0.67559 0
    outer loop
      vertex 57.4533 48.2091 1
      vertex 53.033 53.033 -1
      vertex 53.033 53.033 1
    endloop
  endfacet
  facet normal 0.737278 0.67559 0
    outer loop
      vertex 53.033 53.033 -1
      vertex 57.4533 48.2091 1
      vertex 57.4533 48.2091 -1
    endloop
  endfacet
  facet normal -0.67559 0.737278 0
    outer loop
      vertex -48.2091 57.4533 -1
      vertex -53.033 53.033 1
      vertex -48.2091 57.4533 1
    endloop
  endfacet
  facet normal -0.67559 0.737278 0
    outer loop
      vertex -53.033 53.033 1
      vertex -48.2091 57.4533 -1
      vertex -53.033 53.033 -1
    endloop
  endfacet
  facet normal -0.382683 0.92388 0
    outer loop
      vertex -25.6515 70.4769 -1
      vertex -31.6964 67.9731 1
      vertex -25.6515 70.4769 1
    endloop
  endfacet
  facet normal -0.382683 0.92388 0
    outer loop
      vertex -31.6964 67.9731 1
      vertex -25.6515 70.4769 -1
      vertex -31.6964 67.9731 -1
    endloop
  endfacet
  facet normal 0.92388 0.382683 0
    outer loop
      vertex 70.4769 25.6515 1
      vertex 67.9731 31.6964 -1
      vertex 67.9731 31.6964 1
    endloop
  endfacet
  facet normal 0.92388 0.382683 0
    outer loop
      vertex 67.9731 31.6964 -1
      vertex 70.4769 25.6515 1
      vertex 70.4769 25.6515 -1
    endloop
  endfacet
  facet normal 0.461749 0.887011 -0
    outer loop
      vertex 37.5 64.9519 -1
      vertex 31.6964 67.9731 1
      vertex 37.5 64.9519 1
    endloop
  endfacet
  facet normal 0.461749 0.887011 0
    outer loop
      vertex 31.6964 67.9731 1
      vertex 37.5 64.9519 -1
      vertex 31.6964 67.9731 -1
    endloop
  endfacet
  facet normal 0.608762 0.793353 -0
    outer loop
      vertex 48.2091 57.4533 -1
      vertex 43.0182 61.4364 1
      vertex 48.2091 57.4533 1
    endloop
  endfacet
  facet normal 0.608762 0.793353 0
    outer loop
      vertex 43.0182 61.4364 1
      vertex 48.2091 57.4533 -1
      vertex 43.0182 61.4364 -1
    endloop
  endfacet
  facet normal -0.887011 0.461749 0
    outer loop
      vertex -67.9731 31.6964 -1
      vertex -64.9519 37.5 1
      vertex -64.9519 37.5 -1
    endloop
  endfacet
  facet normal -0.887011 0.461749 0
    outer loop
      vertex -64.9519 37.5 1
      vertex -67.9731 31.6964 -1
      vertex -67.9731 31.6964 1
    endloop
  endfacet
  facet normal -0.130526 0.991445 0
    outer loop
      vertex -6.53668 74.7146 -1
      vertex -13.0236 73.8606 1
      vertex -6.53668 74.7146 1
    endloop
  endfacet
  facet normal -0.130526 0.991445 0
    outer loop
      vertex -13.0236 73.8606 1
      vertex -6.53668 74.7146 -1
      vertex -13.0236 73.8606 -1
    endloop
  endfacet
  facet normal 0.92388 -0.382683 0
    outer loop
      vertex 67.9731 -31.6964 1
      vertex 70.4769 -25.6515 -1
      vertex 70.4769 -25.6515 1
    endloop
  endfacet
  facet normal 0.92388 -0.382683 0
    outer loop
      vertex 70.4769 -25.6515 -1
      vertex 67.9731 -31.6964 1
      vertex 67.9731 -31.6964 -1
    endloop
  endfacet
  facet normal 0 0 -1
    outer loop
      vertex 0 2 -1
      vertex 74.7146 6.53668 -1
      vertex 74.9127 2 -1
    endloop
  endfacet
  facet normal -0 0 -1
    outer loop
      vertex 74.7146 6.53668 -1
      vertex 0 2 -1
      vertex 73.8606 13.0236 -1
    endloop
  endfacet
  facet normal -0 0 -1
    outer loop
      vertex 73.8606 13.0236 -1
      vertex 0 2 -1
      vertex 72.4444 19.4114 -1
    endloop
  endfacet
  facet normal -0 0 -1
    outer loop
      vertex 72.4444 19.4114 -1
      vertex 0 2 -1
      vertex 70.4769 25.6515 -1
    endloop
  endfacet
  facet normal -0 0 -1
    outer loop
      vertex 70.4769 25.6515 -1
      vertex 0 2 -1
      vertex 67.9731 31.6964 -1
    endloop
  endfacet
  facet normal -0 0 -1
    outer loop
      vertex 67.9731 31.6964 -1
      vertex 0 2 -1
      vertex 64.9519 37.5 -1
    endloop
  endfacet
  facet normal 0 0 -1
    outer loop
      vertex 0 37.5 -1
      vertex 64.9519 37.5 -1
      vertex 0 2 -1
    endloop
  endfacet
  facet normal 0 0 -1
    outer loop
      vertex 64.9519 37.5 -1
      vertex 0 37.5 -1
      vertex 61.4364 43.0182 -1
    endloop
  endfacet
  facet normal -0 0 -1
    outer loop
      vertex 61.4364 43.0182 -1
      vertex 0 37.5 -1
      vertex 57.4533 48.2091 -1
    endloop
  endfacet
  facet normal -0 0 -1
    outer loop
      vertex 57.4533 48.2091 -1
      vertex 0 37.5 -1
      vertex 53.033 53.033 -1
    endloop
  endfacet
  facet normal -0 0 -1
    outer loop
      vertex 48.2091 57.4533 -1
      vertex 0 37.5 -1
      vertex 43.0182 61.4364 -1
    endloop
  endfacet
  facet normal -0 0 -1
    outer loop
      vertex 43.0182 61.4364 -1
      vertex 0 37.5 -1
      vertex 37.5 64.9519 -1
    endloop
  endfacet
  facet normal -0 0 -1
    outer loop
      vertex 37.5 64.9519 -1
      vertex 0 37.5 -1
      vertex 31.6964 67.9731 -1
    endloop
  endfacet
  facet normal -0 0 -1
    outer loop
      vertex 31.6964 67.9731 -1
      vertex 0 37.5 -1
      vertex 25.6515 70.4769 -1
    endloop
  endfacet
  facet normal -0 0 -1
    outer loop
      vertex 25.6515 70.4769 -1
      vertex 0 37.5 -1
      vertex 19.4114 72.4444 -1
    endloop
  endfacet
  facet normal -0 0 -1
    outer loop
      vertex 19.4114 72.4444 -1
      vertex 0 37.5 -1
      vertex 13.0236 73.8606 -1
    endloop
  endfacet
  facet normal -0 0 -1
    outer loop
      vertex 53.033 53.033 -1
      vertex 0 37.5 -1
      vertex 48.2091 57.4533 -1
    endloop
  endfacet
  facet normal -0 0 -1
    outer loop
      vertex 13.0236 73.8606 -1
      vertex 0 37.5 -1
      vertex 6.53668 74.7146 -1
    endloop
  endfacet
  facet normal -0 0 -1
    outer loop
      vertex 6.53668 74.7146 -1
      vertex 0 37.5 -1
      vertex 0 75 -1
    endloop
  endfacet
  facet normal 0 0 -1
    outer loop
      vertex -6.53668 -74.7146 -1
      vertex 0 -37.5 -1
      vertex 0 -75 -1
    endloop
  endfacet
  facet normal 0 0 -1
    outer loop
      vertex -13.0236 -73.8606 -1
      vertex 0 -37.5 -1
      vertex -6.53668 -74.7146 -1
    endloop
  endfacet
  facet normal 0 0 -1
    outer loop
      vertex -19.4114 -72.4444 -1
      vertex 0 -37.5 -1
      vertex -13.0236 -73.8606 -1
    endloop
  endfacet
  facet normal 0 0 -1
    outer loop
      vertex 0 2 -1
      vertex -2 37.5 -1
      vertex 0 37.5 -1
    endloop
  endfacet
  facet normal 0 0 -1
    outer loop
      vertex -25.6515 -70.4769 -1
      vertex 0 -37.5 -1
      vertex -19.4114 -72.4444 -1
    endloop
  endfacet
  facet normal 0 0 -1
    outer loop
      vertex -31.6964 -67.9731 -1
      vertex 0 -37.5 -1
      vertex -25.6515 -70.4769 -1
    endloop
  endfacet
  facet normal 0 0 -1
    outer loop
      vertex -37.5 -64.9519 -1
      vertex 0 -37.5 -1
      vertex -31.6964 -67.9731 -1
    endloop
  endfacet
  facet normal 0 -0 -1
    outer loop
      vertex -6.53668 74.7146 -1
      vertex -2 37.5 -1
      vertex -13.0236 73.8606 -1
    endloop
  endfacet
  facet normal 0 0 -1
    outer loop
      vertex -2 37.5 -1
      vertex -6.53668 74.7146 -1
      vertex -2 74.9127 -1
    endloop
  endfacet
  facet normal 0 0 -1
    outer loop
      vertex -43.0182 -61.4364 -1
      vertex 0 -37.5 -1
      vertex -37.5 -64.9519 -1
    endloop
  endfacet
  facet normal 0 0 -1
    outer loop
      vertex -2 37.5 -1
      vertex -19.4114 72.4444 -1
      vertex -13.0236 73.8606 -1
    endloop
  endfacet
  facet normal 0 0 -1
    outer loop
      vertex -48.2091 -57.4533 -1
      vertex 0 -37.5 -1
      vertex -43.0182 -61.4364 -1
    endloop
  endfacet
  facet normal 0 0 -1
    outer loop
      vertex -2 37.5 -1
      vertex -25.6515 70.4769 -1
      vertex -19.4114 72.4444 -1
    endloop
  endfacet
  facet normal 0 0 -1
    outer loop
      vertex -53.033 -53.033 -1
      vertex 0 -37.5 -1
      vertex -48.2091 -57.4533 -1
    endloop
  endfacet
  facet normal 0 0 -1
    outer loop
      vertex -2 37.5 -1
      vertex -31.6964 67.9731 -1
      vertex -25.6515 70.4769 -1
    endloop
  endfacet
  facet normal 0 0 -1
    outer loop
      vertex -57.4533 -48.2091 -1
      vertex 0 -37.5 -1
      vertex -53.033 -53.033 -1
    endloop
  endfacet
  facet normal 0 0 -1
    outer loop
      vertex -2 37.5 -1
      vertex -37.5 64.9519 -1
      vertex -31.6964 67.9731 -1
    endloop
  endfacet
  facet normal 0 0 -1
    outer loop
      vertex -61.4364 -43.0182 -1
      vertex 0 -37.5 -1
      vertex -57.4533 -48.2091 -1
    endloop
  endfacet
  facet normal 0 0 -1
    outer loop
      vertex -2 37.5 -1
      vertex -43.0182 61.4364 -1
      vertex -37.5 64.9519 -1
    endloop
  endfacet
  facet normal 0 0 -1
    outer loop
      vertex -64.9519 -37.5 -1
      vertex 0 -37.5 -1
      vertex -61.4364 -43.0182 -1
    endloop
  endfacet
  facet normal 0 0 -1
    outer loop
      vertex -2 37.5 -1
      vertex -48.2091 57.4533 -1
      vertex -43.0182 61.4364 -1
    endloop
  endfacet
  facet normal 0 0 -1
    outer loop
      vertex 0 -37.5 -1
      vertex -64.9519 -37.5 -1
      vertex 0 0 -1
    endloop
  endfacet
  facet normal 0 0 -1
    outer loop
      vertex -2 37.5 -1
      vertex -53.033 53.033 -1
      vertex -48.2091 57.4533 -1
    endloop
  endfacet
  facet normal 0 0 -1
    outer loop
      vertex -67.9731 -31.6964 -1
      vertex 0 0 -1
      vertex -64.9519 -37.5 -1
    endloop
  endfacet
  facet normal 0 0 -1
    outer loop
      vertex -2 37.5 -1
      vertex -57.4533 48.2091 -1
      vertex -53.033 53.033 -1
    endloop
  endfacet
  facet normal 0 0 -1
    outer loop
      vertex -70.4769 -25.6515 -1
      vertex 0 0 -1
      vertex -67.9731 -31.6964 -1
    endloop
  endfacet
  facet normal 0 0 -1
    outer loop
      vertex -2 37.5 -1
      vertex -61.4364 43.0182 -1
      vertex -57.4533 48.2091 -1
    endloop
  endfacet
  facet normal 0 0 -1
    outer loop
      vertex -72.4444 -19.4114 -1
      vertex 0 0 -1
      vertex -70.4769 -25.6515 -1
    endloop
  endfacet
  facet normal 0 0 -1
    outer loop
      vertex -2 37.5 -1
      vertex -64.9519 37.5 -1
      vertex -61.4364 43.0182 -1
    endloop
  endfacet
  facet normal 0 0 -1
    outer loop
      vertex -73.8606 -13.0236 -1
      vertex 0 0 -1
      vertex -72.4444 -19.4114 -1
    endloop
  endfacet
  facet normal 0 0 -1
    outer loop
      vertex 0 2 -1
      vertex -64.9519 37.5 -1
      vertex -2 37.5 -1
    endloop
  endfacet
  facet normal 0 0 -1
    outer loop
      vertex -74.7146 -6.53668 -1
      vertex 0 0 -1
      vertex -73.8606 -13.0236 -1
    endloop
  endfacet
  facet normal 0 -0 -1
    outer loop
      vertex -64.9519 37.5 -1
      vertex 0 2 -1
      vertex -67.9731 31.6964 -1
    endloop
  endfacet
  facet normal 0 0 -1
    outer loop
      vertex -75 0 -1
      vertex 0 0 -1
      vertex -74.7146 -6.53668 -1
    endloop
  endfacet
  facet normal 0 -0 -1
    outer loop
      vertex -67.9731 31.6964 -1
      vertex 0 2 -1
      vertex -70.4769 25.6515 -1
    endloop
  endfacet
  facet normal 0 0 -1
    outer loop
      vertex 0 0 -1
      vertex -75 0 -1
      vertex 0 2 -1
    endloop
  endfacet
  facet normal 0 -0 -1
    outer loop
      vertex -70.4769 25.6515 -1
      vertex 0 2 -1
      vertex -72.4444 19.4114 -1
    endloop
  endfacet
  facet normal 0 -0 -1
    outer loop
      vertex -74.7146 6.53668 -1
      vertex 0 2 -1
      vertex -75 0 -1
    endloop
  endfacet
  facet normal 0 -0 -1
    outer loop
      vertex -72.4444 19.4114 -1
      vertex 0 2 -1
      vertex -73.8606 13.0236 -1
    endloop
  endfacet
  facet normal 0 -0 -1
    outer loop
      vertex -73.8606 13.0236 -1
      vertex 0 2 -1
      vertex -74.7146 6.53668 -1
    endloop
  endfacet
  facet normal 0 0 -1
    outer loop
      vertex 0 0 -1
      vertex 74.7146 -6.53668 -1
      vertex 73.8606 -13.0236 -1
    endloop
  endfacet
  facet normal 0 0 -1
    outer loop
      vertex 0 0 -1
      vertex 73.8606 -13.0236 -1
      vertex 72.4444 -19.4114 -1
    endloop
  endfacet
  facet normal 0 0 -1
    outer loop
      vertex 0 0 -1
      vertex 72.4444 -19.4114 -1
      vertex 70.4769 -25.6515 -1
    endloop
  endfacet
  facet normal 0 0 -1
    outer loop
      vertex 0 0 -1
      vertex 70.4769 -25.6515 -1
      vertex 67.9731 -31.6964 -1
    endloop
  endfacet
  facet normal 0 0 -1
    outer loop
      vertex 0 0 -1
      vertex 67.9731 -31.6964 -1
      vertex 64.9519 -37.5 -1
    endloop
  endfacet
  facet normal 0 0 -1
    outer loop
      vertex 2 -37.5 -1
      vertex 64.9519 -37.5 -1
      vertex 61.4364 -43.0182 -1
    endloop
  endfacet
  facet normal 0 0 -1
    outer loop
      vertex 2 -37.5 -1
      vertex 61.4364 -43.0182 -1
      vertex 57.4533 -48.2091 -1
    endloop
  endfacet
  facet normal 0 0 -1
    outer loop
      vertex 2 -37.5 -1
      vertex 57.4533 -48.2091 -1
      vertex 53.033 -53.033 -1
    endloop
  endfacet
  facet normal 0 0 -1
    outer loop
      vertex 2 -37.5 -1
      vertex 53.033 -53.033 -1
      vertex 48.2091 -57.4533 -1
    endloop
  endfacet
  facet normal 0 0 -1
    outer loop
      vertex 2 -37.5 -1
      vertex 48.2091 -57.4533 -1
      vertex 43.0182 -61.4364 -1
    endloop
  endfacet
  facet normal 0 0 -1
    outer loop
      vertex 2 -37.5 -1
      vertex 43.0182 -61.4364 -1
      vertex 37.5 -64.9519 -1
    endloop
  endfacet
  facet normal 0 0 -1
    outer loop
      vertex 2 -37.5 -1
      vertex 37.5 -64.9519 -1
      vertex 31.6964 -67.9731 -1
    endloop
  endfacet
  facet normal 0 0 -1
    outer loop
      vertex 2 -37.5 -1
      vertex 31.6964 -67.9731 -1
      vertex 25.6515 -70.4769 -1
    endloop
  endfacet
  facet normal 0 0 -1
    outer loop
      vertex 2 -37.5 -1
      vertex 25.6515 -70.4769 -1
      vertex 19.4114 -72.4444 -1
    endloop
  endfacet
  facet normal 0 0 -1
    outer loop
      vertex 2 -37.5 -1
      vertex 19.4114 -72.4444 -1
      vertex 13.0236 -73.8606 -1
    endloop
  endfacet
  facet normal 0 0 -1
    outer loop
      vertex 2 -37.5 -1
      vertex 13.0236 -73.8606 -1
      vertex 6.53668 -74.7146 -1
    endloop
  endfacet
  facet normal 0 0 -1
    outer loop
      vertex 2 -37.5 -1
      vertex 6.53668 -74.7146 -1
      vertex 2 -74.9127 -1
    endloop
  endfacet
  facet normal 0 0 -1
    outer loop
      vertex 64.9519 -37.5 -1
      vertex 2 -37.5 -1
      vertex 0 0 -1
    endloop
  endfacet
  facet normal 0 0 -1
    outer loop
      vertex 0 0 -1
      vertex 2 -37.5 -1
      vertex 0 -37.5 -1
    endloop
  endfacet
  facet normal 0 0 -1
    outer loop
      vertex 74.7146 -6.53668 -1
      vertex 0 0 -1
      vertex 75 0 -1
    endloop
  endfacet
  facet normal 0.976296 0.21644 0
    outer loop
      vertex 73.8606 13.0236 1
      vertex 72.4444 19.4114 -1
      vertex 72.4444 19.4114 1
    endloop
  endfacet
  facet normal 0.976296 0.21644 0
    outer loop
      vertex 72.4444 19.4114 -1
      vertex 73.8606 13.0236 1
      vertex 73.8606 13.0236 -1
    endloop
  endfacet
  facet normal 0.991445 0.130526 0
    outer loop
      vertex 74.7146 6.53668 1
      vertex 73.8606 13.0236 -1
      vertex 73.8606 13.0236 1
    endloop
  endfacet
  facet normal 0.991445 0.130526 0
    outer loop
      vertex 73.8606 13.0236 -1
      vertex 74.7146 6.53668 1
      vertex 74.7146 6.53668 -1
    endloop
  endfacet
  facet normal 0.953717 0.300706 0
    outer loop
      vertex 72.4444 19.4114 1
      vertex 70.4769 25.6515 -1
      vertex 70.4769 25.6515 1
    endloop
  endfacet
  facet normal 0.953717 0.300706 0
    outer loop
      vertex 70.4769 25.6515 -1
      vertex 72.4444 19.4114 1
      vertex 72.4444 19.4114 -1
    endloop
  endfacet
  facet normal 0.843391 0.5373 0
    outer loop
      vertex 64.9519 37.5 1
      vertex 61.4364 43.0182 -1
      vertex 61.4364 43.0182 1
    endloop
  endfacet
  facet normal 0.843391 0.5373 0
    outer loop
      vertex 61.4364 43.0182 -1
      vertex 64.9519 37.5 1
      vertex 64.9519 37.5 -1
    endloop
  endfacet
  facet normal 0.793353 0.608762 0
    outer loop
      vertex 61.4364 43.0182 1
      vertex 57.4533 48.2091 -1
      vertex 57.4533 48.2091 1
    endloop
  endfacet
  facet normal 0.793353 0.608762 0
    outer loop
      vertex 57.4533 48.2091 -1
      vertex 61.4364 43.0182 1
      vertex 61.4364 43.0182 -1
    endloop
  endfacet
  facet normal 0.887011 0.461749 0
    outer loop
      vertex 67.9731 31.6964 1
      vertex 64.9519 37.5 -1
      vertex 64.9519 37.5 1
    endloop
  endfacet
  facet normal 0.887011 0.461749 0
    outer loop
      vertex 64.9519 37.5 -1
      vertex 67.9731 31.6964 1
      vertex 67.9731 31.6964 -1
    endloop
  endfacet
  facet normal 0.21644 0.976296 -0
    outer loop
      vertex 19.4114 72.4444 -1
      vertex 13.0236 73.8606 1
      vertex 19.4114 72.4444 1
    endloop
  endfacet
  facet normal 0.21644 0.976296 0
    outer loop
      vertex 13.0236 73.8606 1
      vertex 19.4114 72.4444 -1
      vertex 13.0236 73.8606 -1
    endloop
  endfacet
  facet normal 0.382683 0.92388 -0
    outer loop
      vertex 31.6964 67.9731 -1
      vertex 25.6515 70.4769 1
      vertex 31.6964 67.9731 1
    endloop
  endfacet
  facet normal 0.382683 0.92388 0
    outer loop
      vertex 25.6515 70.4769 1
      vertex 31.6964 67.9731 -1
      vertex 25.6515 70.4769 -1
    endloop
  endfacet
  facet normal 0.130526 0.991445 -0
    outer loop
      vertex 13.0236 73.8606 -1
      vertex 6.53668 74.7146 1
      vertex 13.0236 73.8606 1
    endloop
  endfacet
  facet normal 0.130526 0.991445 0
    outer loop
      vertex 6.53668 74.7146 1
      vertex 13.0236 73.8606 -1
      vertex 6.53668 74.7146 -1
    endloop
  endfacet
  facet normal 0.5373 0.843391 -0
    outer loop
      vertex 43.0182 61.4364 -1
      vertex 37.5 64.9519 1
      vertex 43.0182 61.4364 1
    endloop
  endfacet
  facet normal 0.5373 0.843391 0
    outer loop
      vertex 37.5 64.9519 1
      vertex 43.0182 61.4364 -1
      vertex 37.5 64.9519 -1
    endloop
  endfacet
  facet normal 0.67559 0.737278 -0
    outer loop
      vertex 53.033 53.033 -1
      vertex 48.2091 57.4533 1
      vertex 53.033 53.033 1
    endloop
  endfacet
  facet normal 0.67559 0.737278 0
    outer loop
      vertex 48.2091 57.4533 1
      vertex 53.033 53.033 -1
      vertex 48.2091 57.4533 -1
    endloop
  endfacet
  facet normal -0.976296 0.21644 0
    outer loop
      vertex -73.8606 13.0236 -1
      vertex -72.4444 19.4114 1
      vertex -72.4444 19.4114 -1
    endloop
  endfacet
  facet normal -0.976296 0.21644 0
    outer loop
      vertex -72.4444 19.4114 1
      vertex -73.8606 13.0236 -1
      vertex -73.8606 13.0236 1
    endloop
  endfacet
  facet normal -0.793353 0.608762 0
    outer loop
      vertex -61.4364 43.0182 -1
      vertex -57.4533 48.2091 1
      vertex -57.4533 48.2091 -1
    endloop
  endfacet
  facet normal -0.793353 0.608762 0
    outer loop
      vertex -57.4533 48.2091 1
      vertex -61.4364 43.0182 -1
      vertex -61.4364 43.0182 1
    endloop
  endfacet
  facet normal -0.737278 0.67559 0
    outer loop
      vertex -57.4533 48.2091 -1
      vertex -53.033 53.033 1
      vertex -53.033 53.033 -1
    endloop
  endfacet
  facet normal -0.737278 0.67559 0
    outer loop
      vertex -53.033 53.033 1
      vertex -57.4533 48.2091 -1
      vertex -57.4533 48.2091 1
    endloop
  endfacet
  facet normal -0.843391 0.5373 0
    outer loop
      vertex -64.9519 37.5 -1
      vertex -61.4364 43.0182 1
      vertex -61.4364 43.0182 -1
    endloop
  endfacet
  facet normal -0.843391 0.5373 0
    outer loop
      vertex -61.4364 43.0182 1
      vertex -64.9519 37.5 -1
      vertex -64.9519 37.5 1
    endloop
  endfacet
  facet normal -0.92388 0.382683 0
    outer loop
      vertex -70.4769 25.6515 -1
      vertex -67.9731 31.6964 1
      vertex -67.9731 31.6964 -1
    endloop
  endfacet
  facet normal -0.92388 0.382683 0
    outer loop
      vertex -67.9731 31.6964 1
      vertex -70.4769 25.6515 -1
      vertex -70.4769 25.6515 1
    endloop
  endfacet
  facet normal -0.991445 0.130526 0
    outer loop
      vertex -74.7146 6.53668 -1
      vertex -73.8606 13.0236 1
      vertex -73.8606 13.0236 -1
    endloop
  endfacet
  facet normal -0.991445 0.130526 0
    outer loop
      vertex -73.8606 13.0236 1
      vertex -74.7146 6.53668 -1
      vertex -74.7146 6.53668 1
    endloop
  endfacet
  facet normal 0 0 1
    outer loop
      vertex -2 74.9127 1
      vertex -6.53668 74.7146 1
      vertex -2 37.5 1
    endloop
  endfacet
  facet normal 0 0 1
    outer loop
      vertex 0 2 1
      vertex 74.7146 6.53668 1
      vertex 73.8606 13.0236 1
    endloop
  endfacet
  facet normal 0 0 1
    outer loop
      vertex 0 2 1
      vertex 73.8606 13.0236 1
      vertex 72.4444 19.4114 1
    endloop
  endfacet
  facet normal 0 0 1
    outer loop
      vertex 0 2 1
      vertex 72.4444 19.4114 1
      vertex 70.4769 25.6515 1
    endloop
  endfacet
  facet normal 0 0 1
    outer loop
      vertex 0 2 1
      vertex 70.4769 25.6515 1
      vertex 67.9731 31.6964 1
    endloop
  endfacet
  facet normal 0 0 1
    outer loop
      vertex 0 2 1
      vertex 67.9731 31.6964 1
      vertex 64.9519 37.5 1
    endloop
  endfacet
  facet normal 0 0 1
    outer loop
      vertex 0 37.5 1
      vertex 64.9519 37.5 1
      vertex 61.4364 43.0182 1
    endloop
  endfacet
  facet normal 0 0 1
    outer loop
      vertex 0 37.5 1
      vertex 61.4364 43.0182 1
      vertex 57.4533 48.2091 1
    endloop
  endfacet
  facet normal 0 0 1
    outer loop
      vertex 0 37.5 1
      vertex 57.4533 48.2091 1
      vertex 53.033 53.033 1
    endloop
  endfacet
  facet normal 0 0 1
    outer loop
      vertex 0 37.5 1
      vertex 53.033 53.033 1
      vertex 48.2091 57.4533 1
    endloop
  endfacet
  facet normal 0 0 1
    outer loop
      vertex 0 37.5 1
      vertex 48.2091 57.4533 1
      vertex 43.0182 61.4364 1
    endloop
  endfacet
  facet normal 0 0 1
    outer loop
      vertex 0 37.5 1
      vertex 43.0182 61.4364 1
      vertex 37.5 64.9519 1
    endloop
  endfacet
  facet normal 0 0 1
    outer loop
      vertex 0 37.5 1
      vertex 37.5 64.9519 1
      vertex 31.6964 67.9731 1
    endloop
  endfacet
  facet normal 0 0 1
    outer loop
      vertex 0 37.5 1
      vertex 31.6964 67.9731 1
      vertex 25.6515 70.4769 1
    endloop
  endfacet
  facet normal 0 0 1
    outer loop
      vertex 0 37.5 1
      vertex 25.6515 70.4769 1
      vertex 19.4114 72.4444 1
    endloop
  endfacet
  facet normal 0 0 1
    outer loop
      vertex 0 37.5 1
      vertex 19.4114 72.4444 1
      vertex 13.0236 73.8606 1
    endloop
  endfacet
  facet normal 0 0 1
    outer loop
      vertex 0 37.5 1
      vertex 13.0236 73.8606 1
      vertex 6.53668 74.7146 1
    endloop
  endfacet
  facet normal 0 0 1
    outer loop
      vertex 0 37.5 1
      vertex 6.53668 74.7146 1
      vertex 0 75 1
    endloop
  endfacet
  facet normal 0 0 1
    outer loop
      vertex 64.9519 37.5 1
      vertex 0 37.5 1
      vertex 0 2 1
    endloop
  endfacet
  facet normal 0 0 1
    outer loop
      vertex 74.7146 6.53668 1
      vertex 0 2 1
      vertex 74.9127 2 1
    endloop
  endfacet
  facet normal -0 0 1
    outer loop
      vertex -2 37.5 1
      vertex 0 2 1
      vertex 0 37.5 1
    endloop
  endfacet
  facet normal -0 0 1
    outer loop
      vertex -64.9519 37.5 1
      vertex 0 2 1
      vertex -2 37.5 1
    endloop
  endfacet
  facet normal -0 0 1
    outer loop
      vertex -70.4769 25.6515 1
      vertex 0 2 1
      vertex -67.9731 31.6964 1
    endloop
  endfacet
  facet normal 0 -0 1
    outer loop
      vertex -74.7146 -6.53668 1
      vertex 0 0 1
      vertex -75 0 1
    endloop
  endfacet
  facet normal -0 0 1
    outer loop
      vertex -13.0236 73.8606 1
      vertex -2 37.5 1
      vertex -6.53668 74.7146 1
    endloop
  endfacet
  facet normal 0 0 1
    outer loop
      vertex 0 -37.5 1
      vertex -6.53668 -74.7146 1
      vertex 0 -75 1
    endloop
  endfacet
  facet normal -0 0 1
    outer loop
      vertex -19.4114 72.4444 1
      vertex -2 37.5 1
      vertex -13.0236 73.8606 1
    endloop
  endfacet
  facet normal 0 0 1
    outer loop
      vertex 0 -37.5 1
      vertex -13.0236 -73.8606 1
      vertex -6.53668 -74.7146 1
    endloop
  endfacet
  facet normal -0 0 1
    outer loop
      vertex -25.6515 70.4769 1
      vertex -2 37.5 1
      vertex -19.4114 72.4444 1
    endloop
  endfacet
  facet normal 0 0 1
    outer loop
      vertex 0 -37.5 1
      vertex -19.4114 -72.4444 1
      vertex -13.0236 -73.8606 1
    endloop
  endfacet
  facet normal -0 0 1
    outer loop
      vertex -31.6964 67.9731 1
      vertex -2 37.5 1
      vertex -25.6515 70.4769 1
    endloop
  endfacet
  facet normal 0 0 1
    outer loop
      vertex 0 -37.5 1
      vertex -25.6515 -70.4769 1
      vertex -19.4114 -72.4444 1
    endloop
  endfacet
  facet normal -0 0 1
    outer loop
      vertex -37.5 64.9519 1
      vertex -2 37.5 1
      vertex -31.6964 67.9731 1
    endloop
  endfacet
  facet normal 0 0 1
    outer loop
      vertex 0 -37.5 1
      vertex -31.6964 -67.9731 1
      vertex -25.6515 -70.4769 1
    endloop
  endfacet
  facet normal -0 0 1
    outer loop
      vertex -43.0182 61.4364 1
      vertex -2 37.5 1
      vertex -37.5 64.9519 1
    endloop
  endfacet
  facet normal 0 0 1
    outer loop
      vertex 0 -37.5 1
      vertex -37.5 -64.9519 1
      vertex -31.6964 -67.9731 1
    endloop
  endfacet
  facet normal -0 0 1
    outer loop
      vertex -48.2091 57.4533 1
      vertex -2 37.5 1
      vertex -43.0182 61.4364 1
    endloop
  endfacet
  facet normal 0 0 1
    outer loop
      vertex 0 -37.5 1
      vertex -43.0182 -61.4364 1
      vertex -37.5 -64.9519 1
    endloop
  endfacet
  facet normal -0 0 1
    outer loop
      vertex -53.033 53.033 1
      vertex -2 37.5 1
      vertex -48.2091 57.4533 1
    endloop
  endfacet
  facet normal 0 0 1
    outer loop
      vertex 0 -37.5 1
      vertex -48.2091 -57.4533 1
      vertex -43.0182 -61.4364 1
    endloop
  endfacet
  facet normal -0 0 1
    outer loop
      vertex -57.4533 48.2091 1
      vertex -2 37.5 1
      vertex -53.033 53.033 1
    endloop
  endfacet
  facet normal 0 0 1
    outer loop
      vertex 0 -37.5 1
      vertex -53.033 -53.033 1
      vertex -48.2091 -57.4533 1
    endloop
  endfacet
  facet normal -0 0 1
    outer loop
      vertex -61.4364 43.0182 1
      vertex -2 37.5 1
      vertex -57.4533 48.2091 1
    endloop
  endfacet
  facet normal 0 0 1
    outer loop
      vertex 0 -37.5 1
      vertex -57.4533 -48.2091 1
      vertex -53.033 -53.033 1
    endloop
  endfacet
  facet normal 0 0 1
    outer loop
      vertex -64.9519 37.5 1
      vertex -2 37.5 1
      vertex -61.4364 43.0182 1
    endloop
  endfacet
  facet normal 0 0 1
    outer loop
      vertex 0 -37.5 1
      vertex -61.4364 -43.0182 1
      vertex -57.4533 -48.2091 1
    endloop
  endfacet
  facet normal 0 0 1
    outer loop
      vertex 0 2 1
      vertex -64.9519 37.5 1
      vertex -67.9731 31.6964 1
    endloop
  endfacet
  facet normal 0 0 1
    outer loop
      vertex 0 -37.5 1
      vertex -64.9519 -37.5 1
      vertex -61.4364 -43.0182 1
    endloop
  endfacet
  facet normal -0 0 1
    outer loop
      vertex -72.4444 19.4114 1
      vertex 0 2 1
      vertex -70.4769 25.6515 1
    endloop
  endfacet
  facet normal 0 0 1
    outer loop
      vertex 0 0 1
      vertex -64.9519 -37.5 1
      vertex 0 -37.5 1
    endloop
  endfacet
  facet normal -0 0 1
    outer loop
      vertex -73.8606 13.0236 1
      vertex 0 2 1
      vertex -72.4444 19.4114 1
    endloop
  endfacet
  facet normal 0 -0 1
    outer loop
      vertex -64.9519 -37.5 1
      vertex 0 0 1
      vertex -67.9731 -31.6964 1
    endloop
  endfacet
  facet normal -0 0 1
    outer loop
      vertex -74.7146 6.53668 1
      vertex 0 2 1
      vertex -73.8606 13.0236 1
    endloop
  endfacet
  facet normal 0 -0 1
    outer loop
      vertex -67.9731 -31.6964 1
      vertex 0 0 1
      vertex -70.4769 -25.6515 1
    endloop
  endfacet
  facet normal 0 0 1
    outer loop
      vertex -75 0 1
      vertex 0 2 1
      vertex -74.7146 6.53668 1
    endloop
  endfacet
  facet normal 0 -0 1
    outer loop
      vertex -70.4769 -25.6515 1
      vertex 0 0 1
      vertex -72.4444 -19.4114 1
    endloop
  endfacet
  facet normal 0 0 1
    outer loop
      vertex 0 2 1
      vertex -75 0 1
      vertex 0 0 1
    endloop
  endfacet
  facet normal 0 -0 1
    outer loop
      vertex -72.4444 -19.4114 1
      vertex 0 0 1
      vertex -73.8606 -13.0236 1
    endloop
  endfacet
  facet normal 0 -0 1
    outer loop
      vertex -73.8606 -13.0236 1
      vertex 0 0 1
      vertex -74.7146 -6.53668 1
    endloop
  endfacet
  facet normal -0 0 1
    outer loop
      vertex 0 0 1
      vertex 74.7146 -6.53668 1
      vertex 75 0 1
    endloop
  endfacet
  facet normal 0 0 1
    outer loop
      vertex 74.7146 -6.53668 1
      vertex 0 0 1
      vertex 73.8606 -13.0236 1
    endloop
  endfacet
  facet normal 0 0 1
    outer loop
      vertex 73.8606 -13.0236 1
      vertex 0 0 1
      vertex 72.4444 -19.4114 1
    endloop
  endfacet
  facet normal 0 0 1
    outer loop
      vertex 72.4444 -19.4114 1
      vertex 0 0 1
      vertex 70.4769 -25.6515 1
    endloop
  endfacet
  facet normal 0 0 1
    outer loop
      vertex 70.4769 -25.6515 1
      vertex 0 0 1
      vertex 67.9731 -31.6964 1
    endloop
  endfacet
  facet normal 0 0 1
    outer loop
      vertex 67.9731 -31.6964 1
      vertex 0 0 1
      vertex 64.9519 -37.5 1
    endloop
  endfacet
  facet normal 0 -0 1
    outer loop
      vertex 2 -37.5 1
      vertex 64.9519 -37.5 1
      vertex 0 0 1
    endloop
  endfacet
  facet normal 0 0 1
    outer loop
      vertex 64.9519 -37.5 1
      vertex 2 -37.5 1
      vertex 61.4364 -43.0182 1
    endloop
  endfacet
  facet normal 0 0 1
    outer loop
      vertex 61.4364 -43.0182 1
      vertex 2 -37.5 1
      vertex 57.4533 -48.2091 1
    endloop
  endfacet
  facet normal 0 0 1
    outer loop
      vertex 53.033 -53.033 1
      vertex 2 -37.5 1
      vertex 48.2091 -57.4533 1
    endloop
  endfacet
  facet normal 0 0 1
    outer loop
      vertex 48.2091 -57.4533 1
      vertex 2 -37.5 1
      vertex 43.0182 -61.4364 1
    endloop
  endfacet
  facet normal 0 0 1
    outer loop
      vertex 43.0182 -61.4364 1
      vertex 2 -37.5 1
      vertex 37.5 -64.9519 1
    endloop
  endfacet
  facet normal 0 0 1
    outer loop
      vertex 37.5 -64.9519 1
      vertex 2 -37.5 1
      vertex 31.6964 -67.9731 1
    endloop
  endfacet
  facet normal 0 0 1
    outer loop
      vertex 31.6964 -67.9731 1
      vertex 2 -37.5 1
      vertex 25.6515 -70.4769 1
    endloop
  endfacet
  facet normal 0 0 1
    outer loop
      vertex 25.6515 -70.4769 1
      vertex 2 -37.5 1
      vertex 19.4114 -72.4444 1
    endloop
  endfacet
  facet normal 0 0 1
    outer loop
      vertex 19.4114 -72.4444 1
      vertex 2 -37.5 1
      vertex 13.0236 -73.8606 1
    endloop
  endfacet
  facet normal 0 0 1
    outer loop
      vertex 13.0236 -73.8606 1
      vertex 2 -37.5 1
      vertex 6.53668 -74.7146 1
    endloop
  endfacet
  facet normal 0 0 1
    outer loop
      vertex 57.4533 -48.2091 1
      vertex 2 -37.5 1
      vertex 53.033 -53.033 1
    endloop
  endfacet
  facet normal 0 0 1
    outer loop
      vertex 2 -37.5 1
      vertex 0 0 1
      vertex 0 -37.5 1
    endloop
  endfacet
  facet normal 0 0 1
    outer loop
      vertex 6.53668 -74.7146 1
      vertex 2 -37.5 1
      vertex 2 -74.9127 1
    endloop
  endfacet
  facet normal -0.5373 0.843391 0
    outer loop
      vertex -37.5 64.9519 -1
      vertex -43.0182 61.4364 1
      vertex -37.5 64.9519 1
    endloop
  endfacet
  facet normal -0.5373 0.843391 0
    outer loop
      vertex -43.0182 61.4364 1
      vertex -37.5 64.9519 -1
      vertex -43.0182 61.4364 -1
    endloop
  endfacet
  facet normal -0.461749 0.887011 0
    outer loop
      vertex -31.6964 67.9731 -1
      vertex -37.5 64.9519 1
      vertex -31.6964 67.9731 1
    endloop
  endfacet
  facet normal -0.461749 0.887011 0
    outer loop
      vertex -37.5 64.9519 1
      vertex -31.6964 67.9731 -1
      vertex -37.5 64.9519 -1
    endloop
  endfacet
  facet normal -0.608762 0.793353 0
    outer loop
      vertex -43.0182 61.4364 -1
      vertex -48.2091 57.4533 1
      vertex -43.0182 61.4364 1
    endloop
  endfacet
  facet normal -0.608762 0.793353 0
    outer loop
      vertex -48.2091 57.4533 1
      vertex -43.0182 61.4364 -1
      vertex -48.2091 57.4533 -1
    endloop
  endfacet
  facet normal -0.0436207 0.999048 0
    outer loop
      vertex -2 74.9127 -1
      vertex -6.53668 74.7146 1
      vertex -2 74.9127 1
    endloop
  endfacet
  facet normal -0.0436207 0.999048 0
    outer loop
      vertex -6.53668 74.7146 1
      vertex -2 74.9127 -1
      vertex -6.53668 74.7146 -1
    endloop
  endfacet
  facet normal 0.0436207 -0.999048 0
    outer loop
      vertex 2 -74.9127 -1
      vertex 6.53668 -74.7146 1
      vertex 2 -74.9127 1
    endloop
  endfacet
  facet normal 0.0436207 -0.999048 0
    outer loop
      vertex 6.53668 -74.7146 1
      vertex 2 -74.9127 -1
      vertex 6.53668 -74.7146 -1
    endloop
  endfacet
  facet normal 0.608762 -0.793353 0
    outer loop
      vertex 43.0182 -61.4364 -1
      vertex 48.2091 -57.4533 1
      vertex 43.0182 -61.4364 1
    endloop
  endfacet
  facet normal 0.608762 -0.793353 0
    outer loop
      vertex 48.2091 -57.4533 1
      vertex 43.0182 -61.4364 -1
      vertex 48.2091 -57.4533 -1
    endloop
  endfacet
  facet normal 0.461749 -0.887011 0
    outer loop
      vertex 31.6964 -67.9731 -1
      vertex 37.5 -64.9519 1
      vertex 31.6964 -67.9731 1
    endloop
  endfacet
  facet normal 0.461749 -0.887011 0
    outer loop
      vertex 37.5 -64.9519 1
      vertex 31.6964 -67.9731 -1
      vertex 37.5 -64.9519 -1
    endloop
  endfacet
  facet normal 0.737278 -0.67559 0
    outer loop
      vertex 53.033 -53.033 1
      vertex 57.4533 -48.2091 -1
      vertex 57.4533 -48.2091 1
    endloop
  endfacet
  facet normal 0.737278 -0.67559 0
    outer loop
      vertex 57.4533 -48.2091 -1
      vertex 53.033 -53.033 1
      vertex 53.033 -53.033 -1
    endloop
  endfacet
  facet normal 0.843391 -0.5373 0
    outer loop
      vertex 61.4364 -43.0182 1
      vertex 64.9519 -37.5 -1
      vertex 64.9519 -37.5 1
    endloop
  endfacet
  facet normal 0.843391 -0.5373 0
    outer loop
      vertex 64.9519 -37.5 -1
      vertex 61.4364 -43.0182 1
      vertex 61.4364 -43.0182 -1
    endloop
  endfacet
  facet normal -0.21644 -0.976296 0
    outer loop
      vertex -19.4114 -72.4444 -1
      vertex -13.0236 -73.8606 1
      vertex -19.4114 -72.4444 1
    endloop
  endfacet
  facet normal -0.21644 -0.976296 -0
    outer loop
      vertex -13.0236 -73.8606 1
      vertex -19.4114 -72.4444 -1
      vertex -13.0236 -73.8606 -1
    endloop
  endfacet
  facet normal -0.67559 -0.737278 0
    outer loop
      vertex -53.033 -53.033 -1
      vertex -48.2091 -57.4533 1
      vertex -53.033 -53.033 1
    endloop
  endfacet
  facet normal -0.67559 -0.737278 -0
    outer loop
      vertex -48.2091 -57.4533 1
      vertex -53.033 -53.033 -1
      vertex -48.2091 -57.4533 -1
    endloop
  endfacet
  facet normal -0.5373 -0.843391 0
    outer loop
      vertex -43.0182 -61.4364 -1
      vertex -37.5 -64.9519 1
      vertex -43.0182 -61.4364 1
    endloop
  endfacet
  facet normal -0.5373 -0.843391 -0
    outer loop
      vertex -37.5 -64.9519 1
      vertex -43.0182 -61.4364 -1
      vertex -37.5 -64.9519 -1
    endloop
  endfacet
  facet normal -0.382683 -0.92388 0
    outer loop
      vertex -31.6964 -67.9731 -1
      vertex -25.6515 -70.4769 1
      vertex -31.6964 -67.9731 1
    endloop
  endfacet
  facet normal -0.382683 -0.92388 -0
    outer loop
      vertex -25.6515 -70.4769 1
      vertex -31.6964 -67.9731 -1
      vertex -25.6515 -70.4769 -1
    endloop
  endfacet
  facet normal -0.130526 -0.991445 0
    outer loop
      vertex -13.0236 -73.8606 -1
      vertex -6.53668 -74.7146 1
      vertex -13.0236 -73.8606 1
    endloop
  endfacet
  facet normal -0.130526 -0.991445 -0
    outer loop
      vertex -6.53668 -74.7146 1
      vertex -13.0236 -73.8606 -1
      vertex -6.53668 -74.7146 -1
    endloop
  endfacet
  facet normal -0.887011 -0.461749 0
    outer loop
      vertex -64.9519 -37.5 -1
      vertex -67.9731 -31.6964 1
      vertex -67.9731 -31.6964 -1
    endloop
  endfacet
  facet normal -0.887011 -0.461749 0
    outer loop
      vertex -67.9731 -31.6964 1
      vertex -64.9519 -37.5 -1
      vertex -64.9519 -37.5 1
    endloop
  endfacet
  facet normal -0.793353 -0.608762 0
    outer loop
      vertex -57.4533 -48.2091 -1
      vertex -61.4364 -43.0182 1
      vertex -61.4364 -43.0182 -1
    endloop
  endfacet
  facet normal -0.793353 -0.608762 0
    outer loop
      vertex -61.4364 -43.0182 1
      vertex -57.4533 -48.2091 -1
      vertex -57.4533 -48.2091 1
    endloop
  endfacet
  facet normal -0.999048 -0.0436198 0
    outer loop
      vertex -74.7146 -6.53668 -1
      vertex -75 0 1
      vertex -75 0 -1
    endloop
  endfacet
  facet normal -0.999048 -0.0436198 0
    outer loop
      vertex -75 0 1
      vertex -74.7146 -6.53668 -1
      vertex -74.7146 -6.53668 1
    endloop
  endfacet
  facet normal 0.300706 0.953717 -0
    outer loop
      vertex 25.6515 70.4769 -1
      vertex 19.4114 72.4444 1
      vertex 25.6515 70.4769 1
    endloop
  endfacet
  facet normal 0.300706 0.953717 0
    outer loop
      vertex 19.4114 72.4444 1
      vertex 25.6515 70.4769 -1
      vertex 19.4114 72.4444 -1
    endloop
  endfacet
  facet normal -0.953717 0.300706 0
    outer loop
      vertex -72.4444 19.4114 -1
      vertex -70.4769 25.6515 1
      vertex -70.4769 25.6515 -1
    endloop
  endfacet
  facet normal -0.953717 0.300706 0
    outer loop
      vertex -70.4769 25.6515 1
      vertex -72.4444 19.4114 -1
      vertex -72.4444 19.4114 1
    endloop
  endfacet
  facet normal -0.21644 0.976296 0
    outer loop
      vertex -13.0236 73.8606 -1
      vertex -19.4114 72.4444 1
      vertex -13.0236 73.8606 1
    endloop
  endfacet
  facet normal -0.21644 0.976296 0
    outer loop
      vertex -19.4114 72.4444 1
      vertex -13.0236 73.8606 -1
      vertex -19.4114 72.4444 -1
    endloop
  endfacet
  facet normal -0.300706 0.953717 0
    outer loop
      vertex -19.4114 72.4444 -1
      vertex -25.6515 70.4769 1
      vertex -19.4114 72.4444 1
    endloop
  endfacet
  facet normal -0.300706 0.953717 0
    outer loop
      vertex -25.6515 70.4769 1
      vertex -19.4114 72.4444 -1
      vertex -25.6515 70.4769 -1
    endloop
  endfacet
  facet normal 0.999048 -0.0436198 0
    outer loop
      vertex 74.7146 -6.53668 1
      vertex 75 0 -1
      vertex 75 0 1
    endloop
  endfacet
  facet normal 0.999048 -0.0436198 0
    outer loop
      vertex 75 0 -1
      vertex 74.7146 -6.53668 1
      vertex 74.7146 -6.53668 -1
    endloop
  endfacet
  facet normal 0.130526 -0.991445 0
    outer loop
      vertex 6.53668 -74.7146 -1
      vertex 13.0236 -73.8606 1
      vertex 6.53668 -74.7146 1
    endloop
  endfacet
  facet normal 0.130526 -0.991445 0
    outer loop
      vertex 13.0236 -73.8606 1
      vertex 6.53668 -74.7146 -1
      vertex 13.0236 -73.8606 -1
    endloop
  endfacet
  facet normal 0.382683 -0.92388 0
    outer loop
      vertex 25.6515 -70.4769 -1
      vertex 31.6964 -67.9731 1
      vertex 25.6515 -70.4769 1
    endloop
  endfacet
  facet normal 0.382683 -0.92388 0
    outer loop
      vertex 31.6964 -67.9731 1
      vertex 25.6515 -70.4769 -1
      vertex 31.6964 -67.9731 -1
    endloop
  endfacet
  facet normal 0.21644 -0.976296 0
    outer loop
      vertex 13.0236 -73.8606 -1
      vertex 19.4114 -72.4444 1
      vertex 13.0236 -73.8606 1
    endloop
  endfacet
  facet normal 0.21644 -0.976296 0
    outer loop
      vertex 19.4114 -72.4444 1
      vertex 13.0236 -73.8606 -1
      vertex 19.4114 -72.4444 -1
    endloop
  endfacet
  facet normal 0.67559 -0.737278 0
    outer loop
      vertex 48.2091 -57.4533 -1
      vertex 53.033 -53.033 1
      vertex 48.2091 -57.4533 1
    endloop
  endfacet
  facet normal 0.67559 -0.737278 0
    outer loop
      vertex 53.033 -53.033 1
      vertex 48.2091 -57.4533 -1
      vertex 53.033 -53.033 -1
    endloop
  endfacet
  facet normal 0.5373 -0.843391 0
    outer loop
      vertex 37.5 -64.9519 -1
      vertex 43.0182 -61.4364 1
      vertex 37.5 -64.9519 1
    endloop
  endfacet
  facet normal 0.5373 -0.843391 0
    outer loop
      vertex 43.0182 -61.4364 1
      vertex 37.5 -64.9519 -1
      vertex 43.0182 -61.4364 -1
    endloop
  endfacet
  facet normal 0.793353 -0.608762 0
    outer loop
      vertex 57.4533 -48.2091 1
      vertex 61.4364 -43.0182 -1
      vertex 61.4364 -43.0182 1
    endloop
  endfacet
  facet normal 0.793353 -0.608762 0
    outer loop
      vertex 61.4364 -43.0182 -1
      vertex 57.4533 -48.2091 1
      vertex 57.4533 -48.2091 -1
    endloop
  endfacet
  facet normal 0.887011 -0.461749 0
    outer loop
      vertex 64.9519 -37.5 1
      vertex 67.9731 -31.6964 -1
      vertex 67.9731 -31.6964 1
    endloop
  endfacet
  facet normal 0.887011 -0.461749 0
    outer loop
      vertex 67.9731 -31.6964 -1
      vertex 64.9519 -37.5 1
      vertex 64.9519 -37.5 -1
    endloop
  endfacet
  facet normal 0.976296 -0.21644 0
    outer loop
      vertex 72.4444 -19.4114 1
      vertex 73.8606 -13.0236 -1
      vertex 73.8606 -13.0236 1
    endloop
  endfacet
  facet normal 0.976296 -0.21644 0
    outer loop
      vertex 73.8606 -13.0236 -1
      vertex 72.4444 -19.4114 1
      vertex 72.4444 -19.4114 -1
    endloop
  endfacet
  facet normal 0.953717 -0.300706 0
    outer loop
      vertex 70.4769 -25.6515 1
      vertex 72.4444 -19.4114 -1
      vertex 72.4444 -19.4114 1
    endloop
  endfacet
  facet normal 0.953717 -0.300706 0
    outer loop
      vertex 72.4444 -19.4114 -1
      vertex 70.4769 -25.6515 1
      vertex 70.4769 -25.6515 -1
    endloop
  endfacet
  facet normal 0.991445 -0.130526 0
    outer loop
      vertex 73.8606 -13.0236 1
      vertex 74.7146 -6.53668 -1
      vertex 74.7146 -6.53668 1
    endloop
  endfacet
  facet normal 0.991445 -0.130526 0
    outer loop
      vertex 74.7146 -6.53668 -1
      vertex 73.8606 -13.0236 1
      vertex 73.8606 -13.0236 -1
    endloop
  endfacet
  facet normal -0.608762 -0.793353 0
    outer loop
      vertex -48.2091 -57.4533 -1
      vertex -43.0182 -61.4364 1
      vertex -48.2091 -57.4533 1
    endloop
  endfacet
  facet normal -0.608762 -0.793353 -0
    outer loop
      vertex -43.0182 -61.4364 1
      vertex -48.2091 -57.4533 -1
      vertex -43.0182 -61.4364 -1
    endloop
  endfacet
  facet normal -0.461749 -0.887011 0
    outer loop
      vertex -37.5 -64.9519 -1
      vertex -31.6964 -67.9731 1
      vertex -37.5 -64.9519 1
    endloop
  endfacet
  facet normal -0.461749 -0.887011 -0
    outer loop
      vertex -31.6964 -67.9731 1
      vertex -37.5 -64.9519 -1
      vertex -31.6964 -67.9731 -1
    endloop
  endfacet
  facet normal -0.300706 -0.953717 0
    outer loop
      vertex -25.6515 -70.4769 -1
      vertex -19.4114 -72.4444 1
      vertex -25.6515 -70.4769 1
    endloop
  endfacet
  facet normal -0.300706 -0.953717 -0
    outer loop
      vertex -19.4114 -72.4444 1
      vertex -25.6515 -70.4769 -1
      vertex -19.4114 -72.4444 -1
    endloop
  endfacet
  facet normal -0.843391 -0.5373 0
    outer loop
      vertex -61.4364 -43.0182 -1
      vertex -64.9519 -37.5 1
      vertex -64.9519 -37.5 -1
    endloop
  endfacet
  facet normal -0.843391 -0.5373 0
    outer loop
      vertex -64.9519 -37.5 1
      vertex -61.4364 -43.0182 -1
      vertex -61.4364 -43.0182 1
    endloop
  endfacet
  facet normal -0.976296 -0.21644 0
    outer loop
      vertex -72.4444 -19.4114 -1
      vertex -73.8606 -13.0236 1
      vertex -73.8606 -13.0236 -1
    endloop
  endfacet
  facet normal -0.976296 -0.21644 0
    outer loop
      vertex -73.8606 -13.0236 1
      vertex -72.4444 -19.4114 -1
      vertex -72.4444 -19.4114 1
    endloop
  endfacet
  facet normal -0.92388 -0.382683 0
    outer loop
      vertex -67.9731 -31.6964 -1
      vertex -70.4769 -25.6515 1
      vertex -70.4769 -25.6515 -1
    endloop
  endfacet
  facet normal -0.92388 -0.382683 0
    outer loop
      vertex -70.4769 -25.6515 1
      vertex -67.9731 -31.6964 -1
      vertex -67.9731 -31.6964 1
    endloop
  endfacet
  facet normal -0.991445 -0.130526 0
    outer loop
      vertex -73.8606 -13.0236 -1
      vertex -74.7146 -6.53668 1
      vertex -74.7146 -6.53668 -1
    endloop
  endfacet
  facet normal -0.991445 -0.130526 0
    outer loop
      vertex -74.7146 -6.53668 1
      vertex -73.8606 -13.0236 -1
      vertex -73.8606 -13.0236 1
    endloop
  endfacet
  facet normal 0.300706 -0.953717 0
    outer loop
      vertex 19.4114 -72.4444 -1
      vertex 25.6515 -70.4769 1
      vertex 19.4114 -72.4444 1
    endloop
  endfacet
  facet normal 0.300706 -0.953717 0
    outer loop
      vertex 25.6515 -70.4769 1
      vertex 19.4114 -72.4444 -1
      vertex 25.6515 -70.4769 -1
    endloop
  endfacet
  facet normal -0.953717 -0.300706 0
    outer loop
      vertex -70.4769 -25.6515 -1
      vertex -72.4444 -19.4114 1
      vertex -72.4444 -19.4114 -1
    endloop
  endfacet
  facet normal -0.953717 -0.300706 0
    outer loop
      vertex -72.4444 -19.4114 1
      vertex -70.4769 -25.6515 -1
      vertex -70.4769 -25.6515 1
    endloop
  endfacet
  facet normal 1 -0 0
    outer loop
      vertex 0 0 1
      vertex 0 2 -1
      vertex 0 2 1
    endloop
  endfacet
  facet normal 1 0 0
    outer loop
      vertex 0 2 -1
      vertex 0 0 1
      vertex 0 0 -1
    endloop
  endfacet
  facet normal 0 1 -0
    outer loop
      vertex 75 0 -1
      vertex 0 0 1
      vertex 75 0 1
    endloop
  endfacet
  facet normal 0 1 0
    outer loop
      vertex 0 0 1
      vertex 75 0 -1
      vertex 0 0 -1
    endloop
  endfacet
  facet normal 0 -1 0
    outer loop
      vertex 0 2 -1
      vertex 74.9127 2 1
      vertex 0 2 1
    endloop
  endfacet
  facet normal 0 -1 -0
    outer loop
      vertex 74.9127 2 1
      vertex 0 2 -1
      vertex 74.9127 2 -1
    endloop
  endfacet
  facet normal 1 -0 0
    outer loop
      vertex -2 37.5 1
      vertex -2 74.9127 -1
      vertex -2 74.9127 1
    endloop
  endfacet
  facet normal 1 0 0
    outer loop
      vertex -2 74.9127 -1
      vertex -2 37.5 1
      vertex -2 37.5 -1
    endloop
  endfacet
  facet normal 0 1 -0
    outer loop
      vertex 0 37.5 -1
      vertex -2 37.5 1
      vertex 0 37.5 1
    endloop
  endfacet
  facet normal 0 1 0
    outer loop
      vertex -2 37.5 1
      vertex 0 37.5 -1
      vertex -2 37.5 -1
    endloop
  endfacet
  facet normal -1 0 0
    outer loop
      vertex 0 37.5 -1
      vertex 0 75 1
      vertex 0 75 -1
    endloop
  endfacet
  facet normal -1 -0 0
    outer loop
      vertex 0 75 1
      vertex 0 37.5 -1
      vertex 0 37.5 1
    endloop
  endfacet
  facet normal 0 -1 0
    outer loop
      vertex 0 -37.5 -1
      vertex 2 -37.5 1
      vertex 0 -37.5 1
    endloop
  endfacet
  facet normal 0 -1 -0
    outer loop
      vertex 2 -37.5 1
      vertex 0 -37.5 -1
      vertex 2 -37.5 -1
    endloop
  endfacet
  facet normal 1 -0 0
    outer loop
      vertex 0 -75 1
      vertex 0 -37.5 -1
      vertex 0 -37.5 1
    endloop
  endfacet
  facet normal 1 0 0
    outer loop
      vertex 0 -37.5 -1
      vertex 0 -75 1
      vertex 0 -75 -1
    endloop
  endfacet
  facet normal -1 0 0
    outer loop
      vertex 2 -74.9127 -1
      vertex 2 -37.5 1
      vertex 2 -37.5 -1
    endloop
  endfacet
  facet normal -1 -0 0
    outer loop
      vertex 2 -37.5 1
      vertex 2 -74.9127 -1
      vertex 2 -74.9127 1
    endloop
  endfacet
endsolid OpenSCAD_Model
