solid VC Meter Clip Top (V4).stl
  facet normal -1 0 0
    outer loop
      vertex -1.5 -9 3.5
      vertex -1.5 -7 3.5
      vertex -1.5 -9 2.25
    endloop
  endfacet
  facet normal 1 0 0
    outer loop
      vertex -13.5 -7 3.5
      vertex -13.5 -9 3.5
      vertex -13.5 -9 2.25
    endloop
  endfacet
  facet normal 0 0.529999 -0.847998
    outer loop
      vertex -1.5 -7 3.5
      vertex 22 -7 3.5
      vertex -1.5 -9 2.25
    endloop
  endfacet
  facet normal 0 0.529999 -0.847998
    outer loop
      vertex -1.5 -9 2.25
      vertex 22 -7 3.5
      vertex 22 -9 2.25
    endloop
  endfacet
  facet normal 0 -1 0
    outer loop
      vertex -1.5 -7 0
      vertex 22 -7 0
      vertex -1.5 -7 3.5
    endloop
  endfacet
  facet normal 0 -1 0
    outer loop
      vertex -1.5 -7 3.5
      vertex 22 -7 0
      vertex 22 -7 3.5
    endloop
  endfacet
  facet normal -1 0 0
    outer loop
      vertex -22 6 0
      vertex -22 -7 0
      vertex -22 6 8.5
    endloop
  endfacet
  facet normal -1 0 0
    outer loop
      vertex -22 6 8.5
      vertex -22 -7 0
      vertex -22 -7 3.5
    endloop
  endfacet
  facet normal -1 0 0
    outer loop
      vertex -22 -7 8.5
      vertex -22 6 8.5
      vertex -22 -7 5
    endloop
  endfacet
  facet normal -1 0 0
    outer loop
      vertex -22 -7 5
      vertex -22 6 8.5
      vertex -22 -7 3.5
    endloop
  endfacet
  facet normal -1 0 0
    outer loop
      vertex -22 -9 6.25
      vertex -22 -7 3.5
      vertex -22 -9 2.25
    endloop
  endfacet
  facet normal -1 0 0
    outer loop
      vertex -22 -7 5
      vertex -22 -7 3.5
      vertex -22 -9 6.25
    endloop
  endfacet
  facet normal 0 -1 0
    outer loop
      vertex -22 -9 2.25
      vertex -13.5 -9 2.25
      vertex -22 -9 6.25
    endloop
  endfacet
  facet normal 0 -1 0
    outer loop
      vertex -22 -9 6.25
      vertex -13.5 -9 2.25
      vertex -13.5 -9 3.5
    endloop
  endfacet
  facet normal 0 -1 0
    outer loop
      vertex -13.5 -9 3.5
      vertex -13 -9 4
      vertex -22 -9 6.25
    endloop
  endfacet
  facet normal 0 -1 0
    outer loop
      vertex -22 -9 6.25
      vertex -13 -9 4
      vertex -2 -9 4
    endloop
  endfacet
  facet normal 0 -1 0
    outer loop
      vertex -22 -9 6.25
      vertex -2 -9 4
      vertex 22 -9 6.25
    endloop
  endfacet
  facet normal 0 -1 0
    outer loop
      vertex 22 -9 6.25
      vertex -2 -9 4
      vertex -1.5 -9 3.5
    endloop
  endfacet
  facet normal 0 -1 0
    outer loop
      vertex 22 -9 6.25
      vertex -1.5 -9 3.5
      vertex 22 -9 2.25
    endloop
  endfacet
  facet normal 0 -1 0
    outer loop
      vertex 22 -9 2.25
      vertex -1.5 -9 3.5
      vertex -1.5 -9 2.25
    endloop
  endfacet
  facet normal 1 0 0
    outer loop
      vertex 22 -7 3.5
      vertex 22 -7 0
      vertex 22 6 0
    endloop
  endfacet
  facet normal 1 0 0
    outer loop
      vertex 22 -9 6.25
      vertex 22 -9 2.25
      vertex 22 -7 5
    endloop
  endfacet
  facet normal 1 0 0
    outer loop
      vertex 22 -7 5
      vertex 22 -9 2.25
      vertex 22 -7 3.5
    endloop
  endfacet
  facet normal 1 0 0
    outer loop
      vertex 22 -7 3.5
      vertex 22 6 0
      vertex 22 -7 5
    endloop
  endfacet
  facet normal 1 0 0
    outer loop
      vertex 22 -7 5
      vertex 22 6 0
      vertex 22 6 8.5
    endloop
  endfacet
  facet normal 1 0 0
    outer loop
      vertex 22 -7 5
      vertex 22 6 8.5
      vertex 22 -7 8.5
    endloop
  endfacet
  facet normal 0 1 0
    outer loop
      vertex -19 9 8.5
      vertex -16.5 9 8.5
      vertex -16.5 9 8
    endloop
  endfacet
  facet normal 0 1 0
    outer loop
      vertex -19 9 8.5
      vertex -16.5 9 8
      vertex -19 9 0
    endloop
  endfacet
  facet normal 0 1 0
    outer loop
      vertex -16.5 9 8
      vertex -13 9 4.5
      vertex -19 9 0
    endloop
  endfacet
  facet normal 0 1 0
    outer loop
      vertex -19 9 0
      vertex -13 9 4.5
      vertex -2 9 4.5
    endloop
  endfacet
  facet normal 0 1 0
    outer loop
      vertex -19 9 0
      vertex -2 9 4.5
      vertex 19 9 0
    endloop
  endfacet
  facet normal 0 1 0
    outer loop
      vertex 19 9 0
      vertex -2 9 4.5
      vertex 1.5 9 8
    endloop
  endfacet
  facet normal 0 1 0
    outer loop
      vertex 19 9 0
      vertex 1.5 9 8
      vertex 19 9 8.5
    endloop
  endfacet
  facet normal 0 1 0
    outer loop
      vertex 19 9 8.5
      vertex 1.5 9 8
      vertex 1.5 9 8.5
    endloop
  endfacet
  facet normal 0 0 1
    outer loop
      vertex 22 6 8.5
      vertex -1.5 6 8.5
      vertex 22 -7 8.5
    endloop
  endfacet
  facet normal 0 0 1
    outer loop
      vertex 22 -7 8.5
      vertex -1.5 6 8.5
      vertex -1.5 -3 8.5
    endloop
  endfacet
  facet normal 0 0 1
    outer loop
      vertex 22 -7 8.5
      vertex -1.5 -3 8.5
      vertex -22 -7 8.5
    endloop
  endfacet
  facet normal 0 0 1
    outer loop
      vertex -22 -7 8.5
      vertex -1.5 -3 8.5
      vertex -13.5 -3 8.5
    endloop
  endfacet
  facet normal 0 0 1
    outer loop
      vertex -22 -7 8.5
      vertex -13.5 -3 8.5
      vertex -22 6 8.5
    endloop
  endfacet
  facet normal 0 0 1
    outer loop
      vertex -22 6 8.5
      vertex -13.5 -3 8.5
      vertex -13.5 6 8.5
    endloop
  endfacet
  facet normal 0 0 1
    outer loop
      vertex -1.17302 7.36197 8.5
      vertex -1.35317 6.92705 8.5
      vertex 1.5 9 8.5
    endloop
  endfacet
  facet normal 0 0 1
    outer loop
      vertex 21.1213 8.12132 8.5
      vertex 20.7634 8.42705 8.5
      vertex 22 6 8.5
    endloop
  endfacet
  facet normal 0 0 1
    outer loop
      vertex 22 6 8.5
      vertex 20.7634 8.42705 8.5
      vertex 20.362 8.67302 8.5
    endloop
  endfacet
  facet normal 0 0 1
    outer loop
      vertex 1.0307 8.96306 8.5
      vertex 0.57295 8.85317 8.5
      vertex -0.621321 8.12132 8.5
    endloop
  endfacet
  facet normal 0 0 1
    outer loop
      vertex -0.621321 8.12132 8.5
      vertex 0.57295 8.85317 8.5
      vertex 0.138029 8.67302 8.5
    endloop
  endfacet
  facet normal 0 0 1
    outer loop
      vertex -0.621321 8.12132 8.5
      vertex 0.138029 8.67302 8.5
      vertex -0.263355 8.42705 8.5
    endloop
  endfacet
  facet normal 0 0 1
    outer loop
      vertex 22 6 8.5
      vertex 19 9 8.5
      vertex -1.5 6 8.5
    endloop
  endfacet
  facet normal 0 0 1
    outer loop
      vertex -1.5 6 8.5
      vertex 19 9 8.5
      vertex 1.5 9 8.5
    endloop
  endfacet
  facet normal 0 0 1
    outer loop
      vertex -1.5 6 8.5
      vertex 1.5 9 8.5
      vertex -1.46306 6.4693 8.5
    endloop
  endfacet
  facet normal 0 0 1
    outer loop
      vertex -1.46306 6.4693 8.5
      vertex 1.5 9 8.5
      vertex -1.35317 6.92705 8.5
    endloop
  endfacet
  facet normal 0 0 1
    outer loop
      vertex -19 9 8.5
      vertex -22 6 8.5
      vertex -16.5 9 8.5
    endloop
  endfacet
  facet normal 0 0 1
    outer loop
      vertex -16.5 9 8.5
      vertex -22 6 8.5
      vertex -13.5 6 8.5
    endloop
  endfacet
  facet normal 0 0 1
    outer loop
      vertex -16.5 9 8.5
      vertex -13.5 6 8.5
      vertex -13.5369 6.4693 8.5
    endloop
  endfacet
  facet normal 0 0 1
    outer loop
      vertex 22 6 8.5
      vertex 21.9631 6.4693 8.5
      vertex 21.8532 6.92705 8.5
    endloop
  endfacet
  facet normal 0 0 1
    outer loop
      vertex 1.0307 8.96306 8.5
      vertex -0.621321 8.12132 8.5
      vertex 1.5 9 8.5
    endloop
  endfacet
  facet normal 0 0 1
    outer loop
      vertex 1.5 9 8.5
      vertex -0.621321 8.12132 8.5
      vertex -0.927052 7.76336 8.5
    endloop
  endfacet
  facet normal 0 0 1
    outer loop
      vertex 1.5 9 8.5
      vertex -0.927052 7.76336 8.5
      vertex -1.17302 7.36197 8.5
    endloop
  endfacet
  facet normal 0 0 1
    outer loop
      vertex -14.7366 8.42705 8.5
      vertex -15.138 8.67302 8.5
      vertex -15.5729 8.85317 8.5
    endloop
  endfacet
  facet normal 0 0 1
    outer loop
      vertex -21.4271 7.76336 8.5
      vertex -21.673 7.36197 8.5
      vertex -19 9 8.5
    endloop
  endfacet
  facet normal 0 0 1
    outer loop
      vertex 21.8532 6.92705 8.5
      vertex 21.673 7.36197 8.5
      vertex 22 6 8.5
    endloop
  endfacet
  facet normal 0 0 1
    outer loop
      vertex 22 6 8.5
      vertex 21.673 7.36197 8.5
      vertex 21.4271 7.76336 8.5
    endloop
  endfacet
  facet normal 0 0 1
    outer loop
      vertex 22 6 8.5
      vertex 21.4271 7.76336 8.5
      vertex 21.1213 8.12132 8.5
    endloop
  endfacet
  facet normal 0 0 1
    outer loop
      vertex 20.362 8.67302 8.5
      vertex 19.9271 8.85317 8.5
      vertex 22 6 8.5
    endloop
  endfacet
  facet normal 0 0 1
    outer loop
      vertex 22 6 8.5
      vertex 19.9271 8.85317 8.5
      vertex 19.4693 8.96306 8.5
    endloop
  endfacet
  facet normal 0 0 1
    outer loop
      vertex 22 6 8.5
      vertex 19.4693 8.96306 8.5
      vertex 19 9 8.5
    endloop
  endfacet
  facet normal 0 0 1
    outer loop
      vertex -13.5369 6.4693 8.5
      vertex -13.6468 6.92705 8.5
      vertex -16.5 9 8.5
    endloop
  endfacet
  facet normal 0 0 1
    outer loop
      vertex -16.5 9 8.5
      vertex -13.6468 6.92705 8.5
      vertex -13.827 7.36197 8.5
    endloop
  endfacet
  facet normal 0 0 1
    outer loop
      vertex -16.5 9 8.5
      vertex -13.827 7.36197 8.5
      vertex -14.073 7.76336 8.5
    endloop
  endfacet
  facet normal 0 0 1
    outer loop
      vertex -14.073 7.76336 8.5
      vertex -14.3787 8.12132 8.5
      vertex -16.5 9 8.5
    endloop
  endfacet
  facet normal 0 0 1
    outer loop
      vertex -16.5 9 8.5
      vertex -14.3787 8.12132 8.5
      vertex -14.7366 8.42705 8.5
    endloop
  endfacet
  facet normal 0 0 1
    outer loop
      vertex -16.5 9 8.5
      vertex -14.7366 8.42705 8.5
      vertex -16.0307 8.96306 8.5
    endloop
  endfacet
  facet normal 0 0 1
    outer loop
      vertex -16.0307 8.96306 8.5
      vertex -14.7366 8.42705 8.5
      vertex -15.5729 8.85317 8.5
    endloop
  endfacet
  facet normal 0 0 1
    outer loop
      vertex -19.9271 8.85317 8.5
      vertex -20.362 8.67302 8.5
      vertex -20.7634 8.42705 8.5
    endloop
  endfacet
  facet normal 0 0 1
    outer loop
      vertex -21.673 7.36197 8.5
      vertex -21.8532 6.92705 8.5
      vertex -19 9 8.5
    endloop
  endfacet
  facet normal 0 0 1
    outer loop
      vertex -19 9 8.5
      vertex -21.8532 6.92705 8.5
      vertex -21.9631 6.4693 8.5
    endloop
  endfacet
  facet normal 0 0 1
    outer loop
      vertex -19 9 8.5
      vertex -21.9631 6.4693 8.5
      vertex -22 6 8.5
    endloop
  endfacet
  facet normal 0 0 1
    outer loop
      vertex -19.9271 8.85317 8.5
      vertex -20.7634 8.42705 8.5
      vertex -19.4693 8.96306 8.5
    endloop
  endfacet
  facet normal 0 0 1
    outer loop
      vertex -19.4693 8.96306 8.5
      vertex -20.7634 8.42705 8.5
      vertex -19 9 8.5
    endloop
  endfacet
  facet normal 0 0 1
    outer loop
      vertex -19 9 8.5
      vertex -20.7634 8.42705 8.5
      vertex -21.1213 8.12132 8.5
    endloop
  endfacet
  facet normal 0 0 1
    outer loop
      vertex -19 9 8.5
      vertex -21.1213 8.12132 8.5
      vertex -21.4271 7.76336 8.5
    endloop
  endfacet
  facet normal 0 0 -1
    outer loop
      vertex 22 -7 0
      vertex -1.5 -7 0
      vertex 22 6 0
    endloop
  endfacet
  facet normal 0 0 -1
    outer loop
      vertex 22 6 0
      vertex -1.5 -7 0
      vertex -1.5 1 0
    endloop
  endfacet
  facet normal 0 0 -1
    outer loop
      vertex 22 6 0
      vertex -1.5 1 0
      vertex 21.9631 6.4693 0
    endloop
  endfacet
  facet normal 0 0 -1
    outer loop
      vertex -20.362 8.67302 0
      vertex -19.9271 8.85317 0
      vertex -13.5 1 0
    endloop
  endfacet
  facet normal 0 0 -1
    outer loop
      vertex -13.5 -7 0
      vertex -22 -7 0
      vertex -13.5 1 0
    endloop
  endfacet
  facet normal 0 0 -1
    outer loop
      vertex -13.5 1 0
      vertex -22 -7 0
      vertex -22 6 0
    endloop
  endfacet
  facet normal 0 0 -1
    outer loop
      vertex -13.5 1 0
      vertex -22 6 0
      vertex -21.9631 6.4693 0
    endloop
  endfacet
  facet normal 0 0 -1
    outer loop
      vertex -19.9271 8.85317 0
      vertex -19.4693 8.96306 0
      vertex -13.5 1 0
    endloop
  endfacet
  facet normal 0 0 -1
    outer loop
      vertex -13.5 1 0
      vertex -19.4693 8.96306 0
      vertex -19 9 0
    endloop
  endfacet
  facet normal 0 0 -1
    outer loop
      vertex -13.5 1 0
      vertex -19 9 0
      vertex -1.5 1 0
    endloop
  endfacet
  facet normal 0 0 -1
    outer loop
      vertex -1.5 1 0
      vertex -19 9 0
      vertex 19 9 0
    endloop
  endfacet
  facet normal 0 0 -1
    outer loop
      vertex -1.5 1 0
      vertex 19 9 0
      vertex 19.4693 8.96306 0
    endloop
  endfacet
  facet normal 0 0 -1
    outer loop
      vertex 21.4271 7.76336 0
      vertex -1.5 1 0
      vertex 21.1213 8.12132 0
    endloop
  endfacet
  facet normal 0 0 -1
    outer loop
      vertex 21.1213 8.12132 0
      vertex -1.5 1 0
      vertex 20.7634 8.42705 0
    endloop
  endfacet
  facet normal 0 0 -1
    outer loop
      vertex -21.9631 6.4693 0
      vertex -21.8532 6.92705 0
      vertex -13.5 1 0
    endloop
  endfacet
  facet normal 0 0 -1
    outer loop
      vertex -13.5 1 0
      vertex -21.8532 6.92705 0
      vertex -21.673 7.36197 0
    endloop
  endfacet
  facet normal 0 0 -1
    outer loop
      vertex -13.5 1 0
      vertex -21.673 7.36197 0
      vertex -21.4271 7.76336 0
    endloop
  endfacet
  facet normal 0 0 -1
    outer loop
      vertex 19.4693 8.96306 0
      vertex 19.9271 8.85317 0
      vertex -1.5 1 0
    endloop
  endfacet
  facet normal 0 0 -1
    outer loop
      vertex -1.5 1 0
      vertex 19.9271 8.85317 0
      vertex 20.362 8.67302 0
    endloop
  endfacet
  facet normal 0 0 -1
    outer loop
      vertex -1.5 1 0
      vertex 20.362 8.67302 0
      vertex 20.7634 8.42705 0
    endloop
  endfacet
  facet normal 0 0 -1
    outer loop
      vertex 21.4271 7.76336 0
      vertex 21.673 7.36197 0
      vertex -1.5 1 0
    endloop
  endfacet
  facet normal 0 0 -1
    outer loop
      vertex -1.5 1 0
      vertex 21.673 7.36197 0
      vertex 21.8532 6.92705 0
    endloop
  endfacet
  facet normal 0 0 -1
    outer loop
      vertex -1.5 1 0
      vertex 21.8532 6.92705 0
      vertex 21.9631 6.4693 0
    endloop
  endfacet
  facet normal 0 0 -1
    outer loop
      vertex -21.4271 7.76336 0
      vertex -21.1213 8.12132 0
      vertex -13.5 1 0
    endloop
  endfacet
  facet normal 0 0 -1
    outer loop
      vertex -13.5 1 0
      vertex -21.1213 8.12132 0
      vertex -20.7634 8.42705 0
    endloop
  endfacet
  facet normal 0 0 -1
    outer loop
      vertex -13.5 1 0
      vertex -20.7634 8.42705 0
      vertex -20.362 8.67302 0
    endloop
  endfacet
  facet normal 0 0.529999 -0.847998
    outer loop
      vertex -13.5 -9 2.25
      vertex -22 -9 2.25
      vertex -13.5 -7 3.5
    endloop
  endfacet
  facet normal 0 0.529999 -0.847998
    outer loop
      vertex -13.5 -7 3.5
      vertex -22 -9 2.25
      vertex -22 -7 3.5
    endloop
  endfacet
  facet normal 0 -1 0
    outer loop
      vertex -13.5 -7 3.5
      vertex -22 -7 3.5
      vertex -13.5 -7 0
    endloop
  endfacet
  facet normal 0 -1 0
    outer loop
      vertex -13.5 -7 0
      vertex -22 -7 3.5
      vertex -22 -7 0
    endloop
  endfacet
  facet normal 0 0.529999 0.847998
    outer loop
      vertex -22 -9 6.25
      vertex 22 -9 6.25
      vertex -22 -7 5
    endloop
  endfacet
  facet normal 0 0.529999 0.847998
    outer loop
      vertex -22 -7 5
      vertex 22 -9 6.25
      vertex 22 -7 5
    endloop
  endfacet
  facet normal 0 -1 0
    outer loop
      vertex -22 -7 5
      vertex 22 -7 5
      vertex -22 -7 8.5
    endloop
  endfacet
  facet normal 0 -1 0
    outer loop
      vertex -22 -7 8.5
      vertex 22 -7 5
      vertex 22 -7 8.5
    endloop
  endfacet
  facet normal -0.0784609 0.996917 0
    outer loop
      vertex -19 9 8.5
      vertex -19 9 0
      vertex -19.4693 8.96306 0
    endloop
  endfacet
  facet normal -0.0784609 0.996917 0
    outer loop
      vertex -19 9 8.5
      vertex -19.4693 8.96306 0
      vertex -19.4693 8.96306 8.5
    endloop
  endfacet
  facet normal -0.233445 0.97237 0
    outer loop
      vertex -19.4693 8.96306 8.5
      vertex -19.4693 8.96306 0
      vertex -19.9271 8.85317 0
    endloop
  endfacet
  facet normal -0.233445 0.97237 0
    outer loop
      vertex -19.4693 8.96306 8.5
      vertex -19.9271 8.85317 0
      vertex -19.9271 8.85317 8.5
    endloop
  endfacet
  facet normal -0.382681 0.92388 0
    outer loop
      vertex -19.9271 8.85317 8.5
      vertex -19.9271 8.85317 0
      vertex -20.362 8.67302 0
    endloop
  endfacet
  facet normal -0.382681 0.92388 0
    outer loop
      vertex -19.9271 8.85317 8.5
      vertex -20.362 8.67302 0
      vertex -20.362 8.67302 8.5
    endloop
  endfacet
  facet normal -0.522499 0.85264 0
    outer loop
      vertex -20.362 8.67302 8.5
      vertex -20.362 8.67302 0
      vertex -20.7634 8.42705 0
    endloop
  endfacet
  facet normal -0.522499 0.85264 0
    outer loop
      vertex -20.362 8.67302 8.5
      vertex -20.7634 8.42705 0
      vertex -20.7634 8.42705 8.5
    endloop
  endfacet
  facet normal -0.649449 0.760405 0
    outer loop
      vertex -20.7634 8.42705 8.5
      vertex -20.7634 8.42705 0
      vertex -21.1213 8.12132 0
    endloop
  endfacet
  facet normal -0.649449 0.760405 0
    outer loop
      vertex -20.7634 8.42705 8.5
      vertex -21.1213 8.12132 0
      vertex -21.1213 8.12132 8.5
    endloop
  endfacet
  facet normal -0.760405 0.64945 0
    outer loop
      vertex -21.1213 8.12132 8.5
      vertex -21.1213 8.12132 0
      vertex -21.4271 7.76336 0
    endloop
  endfacet
  facet normal -0.760405 0.64945 0
    outer loop
      vertex -21.1213 8.12132 8.5
      vertex -21.4271 7.76336 0
      vertex -21.4271 7.76336 8.5
    endloop
  endfacet
  facet normal -0.85264 0.522499 0
    outer loop
      vertex -21.4271 7.76336 8.5
      vertex -21.4271 7.76336 0
      vertex -21.673 7.36197 0
    endloop
  endfacet
  facet normal -0.85264 0.522499 0
    outer loop
      vertex -21.4271 7.76336 8.5
      vertex -21.673 7.36197 0
      vertex -21.673 7.36197 8.5
    endloop
  endfacet
  facet normal -0.923881 0.382681 0
    outer loop
      vertex -21.673 7.36197 8.5
      vertex -21.673 7.36197 0
      vertex -21.8532 6.92705 0
    endloop
  endfacet
  facet normal -0.923881 0.382681 0
    outer loop
      vertex -21.673 7.36197 8.5
      vertex -21.8532 6.92705 0
      vertex -21.8532 6.92705 8.5
    endloop
  endfacet
  facet normal -0.972371 0.233442 0
    outer loop
      vertex -21.8532 6.92705 8.5
      vertex -21.8532 6.92705 0
      vertex -21.9631 6.4693 0
    endloop
  endfacet
  facet normal -0.972371 0.233442 0
    outer loop
      vertex -21.8532 6.92705 8.5
      vertex -21.9631 6.4693 0
      vertex -21.9631 6.4693 8.5
    endloop
  endfacet
  facet normal -0.996917 0.0784651 0
    outer loop
      vertex -21.9631 6.4693 8.5
      vertex -21.9631 6.4693 0
      vertex -22 6 0
    endloop
  endfacet
  facet normal -0.996917 0.0784651 0
    outer loop
      vertex -21.9631 6.4693 8.5
      vertex -22 6 0
      vertex -22 6 8.5
    endloop
  endfacet
  facet normal 0.996917 0.07846 0
    outer loop
      vertex 22 6 8.5
      vertex 22 6 0
      vertex 21.9631 6.4693 0
    endloop
  endfacet
  facet normal 0.996917 0.07846 0
    outer loop
      vertex 22 6 8.5
      vertex 21.9631 6.4693 0
      vertex 21.9631 6.4693 8.5
    endloop
  endfacet
  facet normal 0.97237 0.233445 0
    outer loop
      vertex 21.9631 6.4693 8.5
      vertex 21.9631 6.4693 0
      vertex 21.8532 6.92705 0
    endloop
  endfacet
  facet normal 0.97237 0.233445 0
    outer loop
      vertex 21.9631 6.4693 8.5
      vertex 21.8532 6.92705 0
      vertex 21.8532 6.92705 8.5
    endloop
  endfacet
  facet normal 0.92388 0.382683 0
    outer loop
      vertex 21.8532 6.92705 8.5
      vertex 21.8532 6.92705 0
      vertex 21.673 7.36197 0
    endloop
  endfacet
  facet normal 0.92388 0.382683 0
    outer loop
      vertex 21.8532 6.92705 8.5
      vertex 21.673 7.36197 0
      vertex 21.673 7.36197 8.5
    endloop
  endfacet
  facet normal 0.85264 0.522499 0
    outer loop
      vertex 21.673 7.36197 8.5
      vertex 21.673 7.36197 0
      vertex 21.4271 7.76336 0
    endloop
  endfacet
  facet normal 0.85264 0.522499 0
    outer loop
      vertex 21.673 7.36197 8.5
      vertex 21.4271 7.76336 0
      vertex 21.4271 7.76336 8.5
    endloop
  endfacet
  facet normal 0.760406 0.649447 0
    outer loop
      vertex 21.4271 7.76336 8.5
      vertex 21.4271 7.76336 0
      vertex 21.1213 8.12132 0
    endloop
  endfacet
  facet normal 0.760406 0.649447 0
    outer loop
      vertex 21.4271 7.76336 8.5
      vertex 21.1213 8.12132 0
      vertex 21.1213 8.12132 8.5
    endloop
  endfacet
  facet normal 0.649448 0.760406 0
    outer loop
      vertex 21.1213 8.12132 8.5
      vertex 21.1213 8.12132 0
      vertex 20.7634 8.42705 0
    endloop
  endfacet
  facet normal 0.649448 0.760406 0
    outer loop
      vertex 21.1213 8.12132 8.5
      vertex 20.7634 8.42705 0
      vertex 20.7634 8.42705 8.5
    endloop
  endfacet
  facet normal 0.522498 0.852641 0
    outer loop
      vertex 20.7634 8.42705 8.5
      vertex 20.7634 8.42705 0
      vertex 20.362 8.67302 0
    endloop
  endfacet
  facet normal 0.522498 0.852641 0
    outer loop
      vertex 20.7634 8.42705 8.5
      vertex 20.362 8.67302 0
      vertex 20.362 8.67302 8.5
    endloop
  endfacet
  facet normal 0.382682 0.92388 0
    outer loop
      vertex 20.362 8.67302 8.5
      vertex 20.362 8.67302 0
      vertex 19.9271 8.85317 0
    endloop
  endfacet
  facet normal 0.382682 0.92388 0
    outer loop
      vertex 20.362 8.67302 8.5
      vertex 19.9271 8.85317 0
      vertex 19.9271 8.85317 8.5
    endloop
  endfacet
  facet normal 0.233446 0.97237 0
    outer loop
      vertex 19.9271 8.85317 8.5
      vertex 19.9271 8.85317 0
      vertex 19.4693 8.96306 0
    endloop
  endfacet
  facet normal 0.233446 0.97237 0
    outer loop
      vertex 19.9271 8.85317 8.5
      vertex 19.4693 8.96306 0
      vertex 19.4693 8.96306 8.5
    endloop
  endfacet
  facet normal 0.0784609 0.996917 0
    outer loop
      vertex 19.4693 8.96306 8.5
      vertex 19.4693 8.96306 0
      vertex 19 9 0
    endloop
  endfacet
  facet normal 0.0784609 0.996917 0
    outer loop
      vertex 19.4693 8.96306 8.5
      vertex 19 9 0
      vertex 19 9 8.5
    endloop
  endfacet
  facet normal 1 0 0
    outer loop
      vertex -13.5 6 5
      vertex -13.5 6 8.5
      vertex -13.5 3.86603 5
    endloop
  endfacet
  facet normal 1 0 0
    outer loop
      vertex -13.5 3.86603 5
      vertex -13.5 6 8.5
      vertex -13.5 -3 8.5
    endloop
  endfacet
  facet normal 1 0 0
    outer loop
      vertex -13.5 3.86603 5
      vertex -13.5 -3 8.5
      vertex -13.5 1 3.3453
    endloop
  endfacet
  facet normal 1 0 0
    outer loop
      vertex -13.5 1 3.3453
      vertex -13.5 -3 8.5
      vertex -13.5 -3 5.1547
    endloop
  endfacet
  facet normal 1 0 0
    outer loop
      vertex -13.5 1 3.3453
      vertex -13.5 -3 5.1547
      vertex -13.5 1 0
    endloop
  endfacet
  facet normal 1 0 0
    outer loop
      vertex -13.5 1 0
      vertex -13.5 -3 5.1547
      vertex -13.5 -5.86602 3.5
    endloop
  endfacet
  facet normal 1 0 0
    outer loop
      vertex -13.5 1 0
      vertex -13.5 -5.86602 3.5
      vertex -13.5 -7 0
    endloop
  endfacet
  facet normal 1 0 0
    outer loop
      vertex -13.5 -7 0
      vertex -13.5 -5.86602 3.5
      vertex -13.5 -7 3.5
    endloop
  endfacet
  facet normal 0 0 1
    outer loop
      vertex -13 3 4.5
      vertex -2 3 4.5
      vertex -13 9 4.5
    endloop
  endfacet
  facet normal 0 0 1
    outer loop
      vertex -13 9 4.5
      vertex -2 3 4.5
      vertex -2 9 4.5
    endloop
  endfacet
  facet normal -1 0 0
    outer loop
      vertex -1.5 6 8.5
      vertex -1.5 6 5
      vertex -1.5 3.86603 5
    endloop
  endfacet
  facet normal -1 0 0
    outer loop
      vertex -1.5 -7 0
      vertex -1.5 -7 3.5
      vertex -1.5 -5.86602 3.5
    endloop
  endfacet
  facet normal -1 0 0
    outer loop
      vertex -1.5 6 8.5
      vertex -1.5 3.86603 5
      vertex -1.5 -3 8.5
    endloop
  endfacet
  facet normal -1 0 0
    outer loop
      vertex -1.5 -3 8.5
      vertex -1.5 3.86603 5
      vertex -1.5 -3 5.1547
    endloop
  endfacet
  facet normal -1 0 0
    outer loop
      vertex -1.5 -3 5.1547
      vertex -1.5 3.86603 5
      vertex -1.5 1 3.3453
    endloop
  endfacet
  facet normal -1 0 0
    outer loop
      vertex -1.5 -3 5.1547
      vertex -1.5 1 3.3453
      vertex -1.5 -5.86602 3.5
    endloop
  endfacet
  facet normal -1 0 0
    outer loop
      vertex -1.5 -5.86602 3.5
      vertex -1.5 1 3.3453
      vertex -1.5 1 0
    endloop
  endfacet
  facet normal -1 0 0
    outer loop
      vertex -1.5 -5.86602 3.5
      vertex -1.5 1 0
      vertex -1.5 -7 0
    endloop
  endfacet
  facet normal 0 1 0
    outer loop
      vertex -13.5 -3 5.1547
      vertex -13.5 -3 8.5
      vertex -1.5 -3 5.1547
    endloop
  endfacet
  facet normal 0 1 0
    outer loop
      vertex -1.5 -3 5.1547
      vertex -13.5 -3 8.5
      vertex -1.5 -3 8.5
    endloop
  endfacet
  facet normal 0 -1 0
    outer loop
      vertex -13.5 1 3.3453
      vertex -13.5 1 0
      vertex -1.5 1 3.3453
    endloop
  endfacet
  facet normal 0 -1 0
    outer loop
      vertex -1.5 1 3.3453
      vertex -13.5 1 0
      vertex -1.5 1 0
    endloop
  endfacet
  facet normal 0 0 -1
    outer loop
      vertex -13 -5 4
      vertex -2 -5 4
      vertex -13 -9 4
    endloop
  endfacet
  facet normal 0 0 -1
    outer loop
      vertex -13 -9 4
      vertex -2 -5 4
      vertex -2 -9 4
    endloop
  endfacet
  facet normal 2.88171e-07 0.5 -0.866025
    outer loop
      vertex -13 -5 4
      vertex -13.5 -5.86602 3.5
      vertex -13.5 -3 5.1547
    endloop
  endfacet
  facet normal 0 0.5 -0.866025
    outer loop
      vertex -13 -5 4
      vertex -13.5 -3 5.1547
      vertex -2 -5 4
    endloop
  endfacet
  facet normal 0 0.5 -0.866025
    outer loop
      vertex -2 -5 4
      vertex -13.5 -3 5.1547
      vertex -1.5 -3 5.1547
    endloop
  endfacet
  facet normal -2.88171e-07 0.5 -0.866025
    outer loop
      vertex -2 -5 4
      vertex -1.5 -3 5.1547
      vertex -1.5 -5.86602 3.5
    endloop
  endfacet
  facet normal -2.88171e-07 -0.5 0.866025
    outer loop
      vertex -13 3 4.5
      vertex -13.5 3.86603 5
      vertex -13.5 1 3.3453
    endloop
  endfacet
  facet normal 0 -0.5 0.866025
    outer loop
      vertex -13 3 4.5
      vertex -13.5 1 3.3453
      vertex -2 3 4.5
    endloop
  endfacet
  facet normal 0 -0.5 0.866025
    outer loop
      vertex -2 3 4.5
      vertex -13.5 1 3.3453
      vertex -1.5 1 3.3453
    endloop
  endfacet
  facet normal 3.60214e-07 -0.5 0.866025
    outer loop
      vertex -2 3 4.5
      vertex -1.5 1 3.3453
      vertex -1.5 3.86603 5
    endloop
  endfacet
  facet normal 0.707107 0 -0.707107
    outer loop
      vertex -13.5 -5.86602 3.5
      vertex -13 -5 4
      vertex -13.5 -7 3.5
    endloop
  endfacet
  facet normal 0.707107 0 -0.707107
    outer loop
      vertex -13.5 -7 3.5
      vertex -13 -5 4
      vertex -13 -9 4
    endloop
  endfacet
  facet normal 0.707107 0 -0.707107
    outer loop
      vertex -13.5 -7 3.5
      vertex -13 -9 4
      vertex -13.5 -9 3.5
    endloop
  endfacet
  facet normal -0.707107 0 -0.707107
    outer loop
      vertex -1.5 -9 3.5
      vertex -2 -9 4
      vertex -1.5 -7 3.5
    endloop
  endfacet
  facet normal -0.707107 0 -0.707107
    outer loop
      vertex -1.5 -7 3.5
      vertex -2 -9 4
      vertex -2 -5 4
    endloop
  endfacet
  facet normal -0.707107 0 -0.707107
    outer loop
      vertex -1.5 -7 3.5
      vertex -2 -5 4
      vertex -1.5 -5.86602 3.5
    endloop
  endfacet
  facet normal 0.707106 3.33515e-06 0.707107
    outer loop
      vertex -15.138 8.67302 6.63803
      vertex -14.7366 8.42705 6.23664
      vertex -13 9 4.5
    endloop
  endfacet
  facet normal 0.707106 3.80789e-06 0.707107
    outer loop
      vertex -13 9 4.5
      vertex -14.7366 8.42705 6.23664
      vertex -14.3787 8.12132 5.87868
    endloop
  endfacet
  facet normal 0.707109 -6.1659e-06 0.707104
    outer loop
      vertex -13 9 4.5
      vertex -14.3787 8.12132 5.87868
      vertex -14.073 7.76336 5.57295
    endloop
  endfacet
  facet normal 0.707107 0 0.707107
    outer loop
      vertex -16.5 9 8
      vertex -16.0307 8.96306 7.5307
      vertex -13 9 4.5
    endloop
  endfacet
  facet normal 0.707107 3.1312e-06 0.707107
    outer loop
      vertex -13 9 4.5
      vertex -16.0307 8.96306 7.5307
      vertex -15.5729 8.85317 7.07295
    endloop
  endfacet
  facet normal 0.707107 -9.5902e-06 0.707106
    outer loop
      vertex -13 9 4.5
      vertex -15.5729 8.85317 7.07295
      vertex -15.138 8.67302 6.63803
    endloop
  endfacet
  facet normal 0.707107 0 0.707107
    outer loop
      vertex -13.5 3.86603 5
      vertex -13 3 4.5
      vertex -13.5 6 5
    endloop
  endfacet
  facet normal 0.707107 0 0.707107
    outer loop
      vertex -13.5 6 5
      vertex -13 3 4.5
      vertex -13 9 4.5
    endloop
  endfacet
  facet normal 0.707114 -2.31847e-06 0.7071
    outer loop
      vertex -13.5 6 5
      vertex -13 9 4.5
      vertex -13.5092 6.23538 5.00925
    endloop
  endfacet
  facet normal 0.70711 -7.80812e-07 0.707104
    outer loop
      vertex -13.5092 6.23538 5.00925
      vertex -13 9 4.5
      vertex -13.5369 6.4693 5.03694
    endloop
  endfacet
  facet normal 0.707106 5.40414e-07 0.707108
    outer loop
      vertex -13.7284 7.14805 5.22836
      vertex -13.6468 6.92705 5.14683
      vertex -13 9 4.5
    endloop
  endfacet
  facet normal 0.707102 2.97202e-06 0.707112
    outer loop
      vertex -13 9 4.5
      vertex -13.6468 6.92705 5.14683
      vertex -13.5829 6.70034 5.08289
    endloop
  endfacet
  facet normal 0.707105 9.48023e-07 0.707108
    outer loop
      vertex -13 9 4.5
      vertex -13.5829 6.70034 5.08289
      vertex -13.5369 6.4693 5.03694
    endloop
  endfacet
  facet normal 0.707105 2.26605e-06 0.707109
    outer loop
      vertex -14.073 7.76336 5.57295
      vertex -13.9421 7.5675 5.44208
      vertex -13 9 4.5
    endloop
  endfacet
  facet normal 0.707104 2.21902e-06 0.707109
    outer loop
      vertex -13 9 4.5
      vertex -13.9421 7.5675 5.44208
      vertex -13.827 7.36197 5.32698
    endloop
  endfacet
  facet normal 0.707108 -1.75898e-06 0.707105
    outer loop
      vertex -13 9 4.5
      vertex -13.827 7.36197 5.32698
      vertex -13.7284 7.14805 5.22836
    endloop
  endfacet
  facet normal -0.707107 6.87138e-07 0.707107
    outer loop
      vertex -0.621321 8.12132 5.87868
      vertex -0.263355 8.42705 6.23664
      vertex -2 9 4.5
    endloop
  endfacet
  facet normal -0.707107 -1.92413e-07 0.707107
    outer loop
      vertex -2 9 4.5
      vertex -0.263355 8.42705 6.23664
      vertex 0.138029 8.67302 6.63803
    endloop
  endfacet
  facet normal -0.707107 0 0.707107
    outer loop
      vertex -2 9 4.5
      vertex -2 3 4.5
      vertex -1.5 6 5
    endloop
  endfacet
  facet normal -0.707107 0 0.707107
    outer loop
      vertex -1.5 6 5
      vertex -2 3 4.5
      vertex -1.5 3.86603 5
    endloop
  endfacet
  facet normal -0.707114 -2.31847e-06 0.7071
    outer loop
      vertex -1.5 6 5
      vertex -1.49075 6.23538 5.00925
      vertex -2 9 4.5
    endloop
  endfacet
  facet normal -0.7071 2.72607e-06 0.707114
    outer loop
      vertex -2 9 4.5
      vertex -1.49075 6.23538 5.00925
      vertex -1.46306 6.4693 5.03694
    endloop
  endfacet
  facet normal -0.707112 -2.3235e-06 0.707102
    outer loop
      vertex -2 9 4.5
      vertex -1.46306 6.4693 5.03694
      vertex -1.41711 6.70034 5.08289
    endloop
  endfacet
  facet normal -0.707107 2.55738e-06 0.707107
    outer loop
      vertex 0.138029 8.67302 6.63803
      vertex 0.57295 8.85317 7.07295
      vertex -2 9 4.5
    endloop
  endfacet
  facet normal -0.707107 -8.67101e-06 0.707107
    outer loop
      vertex -2 9 4.5
      vertex 0.57295 8.85317 7.07295
      vertex 1.0307 8.96306 7.5307
    endloop
  endfacet
  facet normal -0.707107 0 0.707107
    outer loop
      vertex -2 9 4.5
      vertex 1.0307 8.96306 7.5307
      vertex 1.5 9 8
    endloop
  endfacet
  facet normal -0.707107 1.50961e-07 0.707106
    outer loop
      vertex -1.41711 6.70034 5.08289
      vertex -1.35317 6.92705 5.14683
      vertex -2 9 4.5
    endloop
  endfacet
  facet normal -0.707106 8.78173e-07 0.707108
    outer loop
      vertex -2 9 4.5
      vertex -1.35317 6.92705 5.14683
      vertex -1.27164 7.14805 5.22836
    endloop
  endfacet
  facet normal -0.707105 1.55661e-06 0.707108
    outer loop
      vertex -2 9 4.5
      vertex -1.27164 7.14805 5.22836
      vertex -1.17302 7.36197 5.32698
    endloop
  endfacet
  facet normal -0.707107 -9.40515e-07 0.707106
    outer loop
      vertex -1.17302 7.36197 5.32698
      vertex -1.05792 7.5675 5.44208
      vertex -2 9 4.5
    endloop
  endfacet
  facet normal -0.707107 -8.78097e-07 0.707106
    outer loop
      vertex -2 9 4.5
      vertex -1.05792 7.5675 5.44208
      vertex -0.927052 7.76336 5.57295
    endloop
  endfacet
  facet normal -0.707107 6.08292e-07 0.707107
    outer loop
      vertex -2 9 4.5
      vertex -0.927052 7.76336 5.57295
      vertex -0.621321 8.12132 5.87868
    endloop
  endfacet
  facet normal -0.999229 0.039255 0
    outer loop
      vertex -1.5 6 5
      vertex -1.5 6 8.5
      vertex -1.49075 6.23538 5.00925
    endloop
  endfacet
  facet normal -0.996914 0.0784608 0.00264972
    outer loop
      vertex -1.49075 6.23538 5.00925
      vertex -1.5 6 8.5
      vertex -1.46306 6.4693 8.5
    endloop
  endfacet
  facet normal -0.993067 0.117546 0
    outer loop
      vertex -1.49075 6.23538 5.00925
      vertex -1.46306 6.4693 8.5
      vertex -1.46306 6.4693 5.03694
    endloop
  endfacet
  facet normal -0.980787 0.195084 0
    outer loop
      vertex -1.46306 6.4693 5.03694
      vertex -1.46306 6.4693 8.5
      vertex -1.41711 6.70034 5.08289
    endloop
  endfacet
  facet normal -0.972367 0.233441 0.00270661
    outer loop
      vertex -1.41711 6.70034 5.08289
      vertex -1.46306 6.4693 8.5
      vertex -1.35317 6.92705 8.5
    endloop
  endfacet
  facet normal -0.962455 0.271441 0
    outer loop
      vertex -1.41711 6.70034 5.08289
      vertex -1.35317 6.92705 8.5
      vertex -1.35317 6.92705 5.14683
    endloop
  endfacet
  facet normal -0.938191 0.346119 0
    outer loop
      vertex -1.35317 6.92705 5.14683
      vertex -1.35317 6.92705 8.5
      vertex -1.27164 7.14805 5.22836
    endloop
  endfacet
  facet normal -0.923876 0.382682 0.00282663
    outer loop
      vertex -1.27164 7.14805 5.22836
      vertex -1.35317 6.92705 8.5
      vertex -1.17302 7.36197 8.5
    endloop
  endfacet
  facet normal -0.908143 0.418659 0
    outer loop
      vertex -1.27164 7.14805 5.22836
      vertex -1.17302 7.36197 8.5
      vertex -1.17302 7.36197 5.32698
    endloop
  endfacet
  facet normal -0.872496 0.48862 0
    outer loop
      vertex -1.17302 7.36197 5.32698
      vertex -1.17302 7.36197 8.5
      vertex -1.05792 7.5675 5.44208
    endloop
  endfacet
  facet normal -0.852636 0.522497 0.0030244
    outer loop
      vertex -1.05792 7.5675 5.44208
      vertex -1.17302 7.36197 8.5
      vertex -0.927052 7.76336 8.5
    endloop
  endfacet
  facet normal -0.831468 0.555573 0
    outer loop
      vertex -1.05792 7.5675 5.44208
      vertex -0.927052 7.76336 8.5
      vertex -0.927052 7.76336 5.57295
    endloop
  endfacet
  facet normal -0.760407 0.649447 0
    outer loop
      vertex -0.927052 7.76336 5.57295
      vertex -0.927052 7.76336 8.5
      vertex -0.621321 8.12132 8.5
    endloop
  endfacet
  facet normal -0.760407 0.649447 0
    outer loop
      vertex -0.927052 7.76336 5.57295
      vertex -0.621321 8.12132 8.5
      vertex -0.621321 8.12132 5.87868
    endloop
  endfacet
  facet normal -0.649447 0.760407 0
    outer loop
      vertex -0.621321 8.12132 5.87868
      vertex -0.621321 8.12132 8.5
      vertex -0.263355 8.42705 8.5
    endloop
  endfacet
  facet normal -0.649447 0.760407 0
    outer loop
      vertex -0.621321 8.12132 5.87868
      vertex -0.263355 8.42705 8.5
      vertex -0.263355 8.42705 6.23664
    endloop
  endfacet
  facet normal -0.522497 0.852641 0
    outer loop
      vertex -0.263355 8.42705 6.23664
      vertex -0.263355 8.42705 8.5
      vertex 0.138029 8.67302 8.5
    endloop
  endfacet
  facet normal -0.522497 0.852641 0
    outer loop
      vertex -0.263355 8.42705 6.23664
      vertex 0.138029 8.67302 8.5
      vertex 0.138029 8.67302 6.63803
    endloop
  endfacet
  facet normal -0.382681 0.92388 0
    outer loop
      vertex 0.138029 8.67302 6.63803
      vertex 0.138029 8.67302 8.5
      vertex 0.57295 8.85317 8.5
    endloop
  endfacet
  facet normal -0.382681 0.92388 0
    outer loop
      vertex 0.138029 8.67302 6.63803
      vertex 0.57295 8.85317 8.5
      vertex 0.57295 8.85317 7.07295
    endloop
  endfacet
  facet normal -0.233446 0.97237 0
    outer loop
      vertex 0.57295 8.85317 7.07295
      vertex 0.57295 8.85317 8.5
      vertex 1.0307 8.96306 8.5
    endloop
  endfacet
  facet normal -0.233446 0.97237 0
    outer loop
      vertex 0.57295 8.85317 7.07295
      vertex 1.0307 8.96306 8.5
      vertex 1.0307 8.96306 7.5307
    endloop
  endfacet
  facet normal -0.0784609 0.996917 0
    outer loop
      vertex 1.0307 8.96306 7.5307
      vertex 1.0307 8.96306 8.5
      vertex 1.5 9 8.5
    endloop
  endfacet
  facet normal -0.0784609 0.996917 0
    outer loop
      vertex 1.0307 8.96306 7.5307
      vertex 1.5 9 8.5
      vertex 1.5 9 8
    endloop
  endfacet
  facet normal 0.0784609 0.996917 0
    outer loop
      vertex -16.5 9 8
      vertex -16.5 9 8.5
      vertex -16.0307 8.96306 8.5
    endloop
  endfacet
  facet normal 0.0784609 0.996917 0
    outer loop
      vertex -16.5 9 8
      vertex -16.0307 8.96306 8.5
      vertex -16.0307 8.96306 7.5307
    endloop
  endfacet
  facet normal 0.233445 0.97237 0
    outer loop
      vertex -16.0307 8.96306 7.5307
      vertex -16.0307 8.96306 8.5
      vertex -15.5729 8.85317 8.5
    endloop
  endfacet
  facet normal 0.233445 0.97237 0
    outer loop
      vertex -16.0307 8.96306 7.5307
      vertex -15.5729 8.85317 8.5
      vertex -15.5729 8.85317 7.07295
    endloop
  endfacet
  facet normal 0.382684 0.923879 0
    outer loop
      vertex -15.5729 8.85317 7.07295
      vertex -15.5729 8.85317 8.5
      vertex -15.138 8.67302 8.5
    endloop
  endfacet
  facet normal 0.382684 0.923879 0
    outer loop
      vertex -15.5729 8.85317 7.07295
      vertex -15.138 8.67302 8.5
      vertex -15.138 8.67302 6.63803
    endloop
  endfacet
  facet normal 0.522496 0.852642 0
    outer loop
      vertex -15.138 8.67302 6.63803
      vertex -15.138 8.67302 8.5
      vertex -14.7366 8.42705 8.5
    endloop
  endfacet
  facet normal 0.522496 0.852642 0
    outer loop
      vertex -15.138 8.67302 6.63803
      vertex -14.7366 8.42705 8.5
      vertex -14.7366 8.42705 6.23664
    endloop
  endfacet
  facet normal 0.649445 0.760408 0
    outer loop
      vertex -14.7366 8.42705 6.23664
      vertex -14.7366 8.42705 8.5
      vertex -14.3787 8.12132 8.5
    endloop
  endfacet
  facet normal 0.649445 0.760408 0
    outer loop
      vertex -14.7366 8.42705 6.23664
      vertex -14.3787 8.12132 8.5
      vertex -14.3787 8.12132 5.87868
    endloop
  endfacet
  facet normal 0.760413 0.64944 0
    outer loop
      vertex -14.3787 8.12132 5.87868
      vertex -14.3787 8.12132 8.5
      vertex -14.073 7.76336 8.5
    endloop
  endfacet
  facet normal 0.760413 0.64944 0
    outer loop
      vertex -14.3787 8.12132 5.87868
      vertex -14.073 7.76336 8.5
      vertex -14.073 7.76336 5.57295
    endloop
  endfacet
  facet normal 0.831464 0.555578 0
    outer loop
      vertex -14.073 7.76336 5.57295
      vertex -14.073 7.76336 8.5
      vertex -13.9421 7.5675 5.44208
    endloop
  endfacet
  facet normal 0.852632 0.522503 0.0030244
    outer loop
      vertex -13.9421 7.5675 5.44208
      vertex -14.073 7.76336 8.5
      vertex -13.827 7.36197 8.5
    endloop
  endfacet
  facet normal 0.872493 0.488627 0
    outer loop
      vertex -13.9421 7.5675 5.44208
      vertex -13.827 7.36197 8.5
      vertex -13.827 7.36197 5.32698
    endloop
  endfacet
  facet normal 0.908147 0.418653 0
    outer loop
      vertex -13.827 7.36197 5.32698
      vertex -13.827 7.36197 8.5
      vertex -13.7284 7.14805 5.22836
    endloop
  endfacet
  facet normal 0.923877 0.382679 0.00282637
    outer loop
      vertex -13.7284 7.14805 5.22836
      vertex -13.827 7.36197 8.5
      vertex -13.6468 6.92705 8.5
    endloop
  endfacet
  facet normal 0.938191 0.346119 0
    outer loop
      vertex -13.7284 7.14805 5.22836
      vertex -13.6468 6.92705 8.5
      vertex -13.6468 6.92705 5.14683
    endloop
  endfacet
  facet normal 0.962453 0.271448 0
    outer loop
      vertex -13.6468 6.92705 5.14683
      vertex -13.6468 6.92705 8.5
      vertex -13.5829 6.70034 5.08289
    endloop
  endfacet
  facet normal 0.972365 0.233449 0.00270661
    outer loop
      vertex -13.5829 6.70034 5.08289
      vertex -13.6468 6.92705 8.5
      vertex -13.5369 6.4693 8.5
    endloop
  endfacet
  facet normal 0.980785 0.195091 0
    outer loop
      vertex -13.5829 6.70034 5.08289
      vertex -13.5369 6.4693 8.5
      vertex -13.5369 6.4693 5.03694
    endloop
  endfacet
  facet normal 0.993068 0.117538 0
    outer loop
      vertex -13.5369 6.4693 5.03694
      vertex -13.5369 6.4693 8.5
      vertex -13.5092 6.23538 5.00925
    endloop
  endfacet
  facet normal 0.996914 0.0784568 0.00264945
    outer loop
      vertex -13.5092 6.23538 5.00925
      vertex -13.5369 6.4693 8.5
      vertex -13.5 6 8.5
    endloop
  endfacet
  facet normal 0.999229 0.039255 0
    outer loop
      vertex -13.5092 6.23538 5.00925
      vertex -13.5 6 8.5
      vertex -13.5 6 5
    endloop
  endfacet
endsolid VC Meter Clip Top (V4).stl
