solid arca-swiss-plate-46mm
facet normal 0.0 -5.020082932157608e-14 1.0
  outer loop
    vertex 25.08614814316553 -1.67558304618188 6.881175000003405
    vertex 18.086148143165527 44.32441695381813 6.881175000005715
    vertex 18.086148143165527 -1.67558304618188 6.881175000003405
  endloop
endfacet
facet normal 0.0 -5.020082932157608e-14 1.0
  outer loop
    vertex 18.086148143165527 44.32441695381813 6.881175000005715
    vertex 25.08614814316553 -1.67558304618188 6.881175000003405
    vertex 25.08614814316553 44.32441695381813 6.881175000005715
  endloop
endfacet
facet normal 0.8000000000000006 3.012049759294566e-14 -0.5999999999999995
  outer loop
    vertex 57.08614814316552 -1.67558304618188 6.881175000003405
    vertex 60.086148143165516 44.32441695381792 10.881175000005712
    vertex 60.086148143165516 -1.6755830461820918 10.88117500000342
  endloop
endfacet
facet normal 0.8000000000000006 3.012049759294566e-14 -0.5999999999999995
  outer loop
    vertex 60.086148143165516 44.32441695381792 10.881175000005712
    vertex 57.08614814316552 -1.67558304618188 6.881175000003405
    vertex 57.08614814316552 44.32441695381813 6.881175000005715
  endloop
endfacet
facet normal 0.0 1.0 5.020082932157608e-14
  outer loop
    vertex 22.086148143165527 44.32441695381792 10.881175000005712
    vertex 57.08614814316552 44.32441695381813 6.881175000005715
    vertex 25.08614814316553 44.32441695381813 6.881175000005715
  endloop
endfacet
facet normal 0.0 1.0 5.020082932157608e-14
  outer loop
    vertex 57.08614814316552 44.32441695381813 6.881175000005715
    vertex 22.086148143165527 44.32441695381792 10.881175000005712
    vertex 60.086148143165516 44.32441695381792 10.881175000005712
  endloop
endfacet
facet normal 0.0 1.0 5.020082932157608e-14
  outer loop
    vertex 60.086148143165516 44.32441695381792 10.881175000005712
    vertex 22.086148143165527 44.32441695381792 10.881175000005712
    vertex 22.086148143165527 44.32441695381787 11.881175000005712
  endloop
endfacet
facet normal 0.0 1.0 5.020082932157608e-14
  outer loop
    vertex 60.086148143165516 44.32441695381792 10.881175000005712
    vertex 22.086148143165527 44.32441695381787 11.881175000005712
    vertex 60.086148143165516 44.32441695381787 11.881175000005712
  endloop
endfacet
facet normal 0.0 1.0 5.020082932157608e-14
  outer loop
    vertex 18.086148143165527 44.32441695381813 6.881175000005715
    vertex 64.08614814316553 44.32441695381842 0.8811750000057118
    vertex 18.086148143165527 44.32441695381842 0.8811750000057118
  endloop
endfacet
facet normal 0.0 1.0 5.020082932157608e-14
  outer loop
    vertex 64.08614814316553 44.32441695381842 0.8811750000057118
    vertex 18.086148143165527 44.32441695381813 6.881175000005715
    vertex 64.08614814316553 44.32441695381813 6.881175000005715
  endloop
endfacet
facet normal 0.0 1.0 5.020082932157608e-14
  outer loop
    vertex 64.08614814316553 44.32441695381813 6.881175000005715
    vertex 18.086148143165527 44.32441695381813 6.881175000005715
    vertex 25.08614814316553 44.32441695381813 6.881175000005715
  endloop
endfacet
facet normal 0.0 1.0 5.020082932157608e-14
  outer loop
    vertex 64.08614814316553 44.32441695381813 6.881175000005715
    vertex 25.08614814316553 44.32441695381813 6.881175000005715
    vertex 57.08614814316552 44.32441695381813 6.881175000005715
  endloop
endfacet
facet normal -0.7999999999999995 3.01204975929457e-14 -0.600000000000001
  outer loop
    vertex 22.086148143165527 44.32441695381792 10.881175000005712
    vertex 25.08614814316553 -1.67558304618188 6.881175000003405
    vertex 22.086148143165527 -1.6755830461820918 10.88117500000342
  endloop
endfacet
facet normal -0.7999999999999995 3.01204975929457e-14 -0.600000000000001
  outer loop
    vertex 25.08614814316553 -1.67558304618188 6.881175000003405
    vertex 22.086148143165527 44.32441695381792 10.881175000005712
    vertex 25.08614814316553 44.32441695381813 6.881175000005715
  endloop
endfacet
facet normal -1.0 0.0 0.0
  outer loop
    vertex 18.086148143165527 44.32441695381813 6.881175000005715
    vertex 18.086148143165527 -1.675583046181598 0.8811750000034192
    vertex 18.086148143165527 -1.67558304618188 6.881175000003405
  endloop
endfacet
facet normal -1.0 0.0 0.0
  outer loop
    vertex 18.086148143165527 -1.675583046181598 0.8811750000034192
    vertex 18.086148143165527 44.32441695381813 6.881175000005715
    vertex 18.086148143165527 44.32441695381842 0.8811750000057118
  endloop
endfacet
facet normal 0.0 5.020127831952453e-14 -1.0
  outer loop
    vertex 38.336148143165516 39.324416953818435 0.881175000005465
    vertex 38.086148143165516 39.324416953818435 0.881175000005465
    vertex 38.336148143165516 43.32441695381843 0.8811750000056638
  endloop
endfacet
facet normal 0.0 5.020127831952453e-14 -1.0
  outer loop
    vertex 44.086148143165516 3.3244169538184014 0.8811750000036701
    vertex 43.83614814316552 -0.6755830461815983 0.8811750000034615
    vertex 43.83614814316552 3.3244169538184014 0.8811750000036701
  endloop
endfacet
facet normal 0.0 5.020127831952453e-14 -1.0
  outer loop
    vertex 18.086148143165527 44.32441695381842 0.8811750000057118
    vertex 38.336148143165516 43.32441695381843 0.8811750000056638
    vertex 18.086148143165527 -1.675583046181598 0.8811750000034192
  endloop
endfacet
facet normal 0.0 5.020127831952453e-14 -1.0
  outer loop
    vertex 38.336148143165516 43.32441695381843 0.8811750000056638
    vertex 18.086148143165527 44.32441695381842 0.8811750000057118
    vertex 64.08614814316553 44.32441695381842 0.8811750000057118
  endloop
endfacet
facet normal 0.0 5.020127831952453e-14 -1.0
  outer loop
    vertex 18.086148143165527 -1.675583046181598 0.8811750000034192
    vertex 38.336148143165516 43.32441695381843 0.8811750000056638
    vertex 38.086148143165516 39.324416953818435 0.881175000005465
  endloop
endfacet
facet normal 0.0 5.020127831952453e-14 -1.0
  outer loop
    vertex 38.336148143165516 43.32441695381843 0.8811750000056638
    vertex 64.08614814316553 44.32441695381842 0.8811750000057118
    vertex 43.83614814316552 43.32441695381843 0.8811750000056638
  endloop
endfacet
facet normal 0.0 5.020127831952453e-14 -1.0
  outer loop
    vertex 43.83614814316552 43.32441695381843 0.8811750000056638
    vertex 64.08614814316553 44.32441695381842 0.8811750000057118
    vertex 43.83614814316552 39.324416953818435 0.881175000005465
  endloop
endfacet
facet normal 0.0 5.020127831952453e-14 -1.0
  outer loop
    vertex 43.83614814316552 39.324416953818435 0.881175000005465
    vertex 64.08614814316553 44.32441695381842 0.8811750000057118
    vertex 44.086148143165516 39.324416953818435 0.881175000005465
  endloop
endfacet
facet normal 0.0 5.020127831952453e-14 -1.0
  outer loop
    vertex 44.086148143165516 39.324416953818435 0.881175000005465
    vertex 64.08614814316553 44.32441695381842 0.8811750000057118
    vertex 44.086148143165516 3.3244169538184014 0.8811750000036701
  endloop
endfacet
facet normal 0.0 5.020127831952453e-14 -1.0
  outer loop
    vertex 18.086148143165527 -1.675583046181598 0.8811750000034192
    vertex 38.336148143165516 -0.6755830461815983 0.8811750000034615
    vertex 64.08614814316553 -1.675583046181598 0.8811750000034192
  endloop
endfacet
facet normal 0.0 5.020127831952453e-14 -1.0
  outer loop
    vertex 38.336148143165516 -0.6755830461815983 0.8811750000034615
    vertex 18.086148143165527 -1.675583046181598 0.8811750000034192
    vertex 38.086148143165516 3.3244169538184014 0.8811750000036701
  endloop
endfacet
facet normal 0.0 5.020127831952453e-14 -1.0
  outer loop
    vertex 38.086148143165516 3.3244169538184014 0.8811750000036701
    vertex 18.086148143165527 -1.675583046181598 0.8811750000034192
    vertex 38.086148143165516 39.324416953818435 0.881175000005465
  endloop
endfacet
facet normal 0.0 5.020127831952453e-14 -1.0
  outer loop
    vertex 38.336148143165516 -0.6755830461815983 0.8811750000034615
    vertex 38.086148143165516 3.3244169538184014 0.8811750000036701
    vertex 38.336148143165516 3.3244169538184014 0.8811750000036701
  endloop
endfacet
facet normal 0.0 5.020127831952453e-14 -1.0
  outer loop
    vertex 64.08614814316553 -1.675583046181598 0.8811750000034192
    vertex 38.336148143165516 -0.6755830461815983 0.8811750000034615
    vertex 43.83614814316552 -0.6755830461815983 0.8811750000034615
  endloop
endfacet
facet normal 0.0 5.020127831952453e-14 -1.0
  outer loop
    vertex 64.08614814316553 -1.675583046181598 0.8811750000034192
    vertex 43.83614814316552 -0.6755830461815983 0.8811750000034615
    vertex 44.086148143165516 3.3244169538184014 0.8811750000036701
  endloop
endfacet
facet normal 0.0 5.020127831952453e-14 -1.0
  outer loop
    vertex 64.08614814316553 -1.675583046181598 0.8811750000034192
    vertex 44.086148143165516 3.3244169538184014 0.8811750000036701
    vertex 64.08614814316553 44.32441695381842 0.8811750000057118
  endloop
endfacet
facet normal 1.0 0.0 0.0
  outer loop
    vertex 64.08614814316553 -1.675583046181598 0.8811750000034192
    vertex 64.08614814316553 44.32441695381813 6.881175000005715
    vertex 64.08614814316553 -1.67558304618188 6.881175000003405
  endloop
endfacet
facet normal 1.0 0.0 0.0
  outer loop
    vertex 64.08614814316553 44.32441695381813 6.881175000005715
    vertex 64.08614814316553 -1.675583046181598 0.8811750000034192
    vertex 64.08614814316553 44.32441695381842 0.8811750000057118
  endloop
endfacet
facet normal 0.0 -5.020082932157608e-14 1.0
  outer loop
    vertex 64.08614814316553 -1.67558304618188 6.881175000003405
    vertex 57.08614814316552 44.32441695381813 6.881175000005715
    vertex 57.08614814316552 -1.67558304618188 6.881175000003405
  endloop
endfacet
facet normal 0.0 -5.020082932157608e-14 1.0
  outer loop
    vertex 57.08614814316552 44.32441695381813 6.881175000005715
    vertex 64.08614814316553 -1.67558304618188 6.881175000003405
    vertex 64.08614814316553 44.32441695381813 6.881175000005715
  endloop
endfacet
facet normal 0.0 -1.0 -5.020082932157608e-14
  outer loop
    vertex 60.086148143165516 -1.6755830461820918 10.88117500000342
    vertex 25.08614814316553 -1.67558304618188 6.881175000003405
    vertex 57.08614814316552 -1.67558304618188 6.881175000003405
  endloop
endfacet
facet normal 0.0 -1.0 -5.020082932157608e-14
  outer loop
    vertex 25.08614814316553 -1.67558304618188 6.881175000003405
    vertex 60.086148143165516 -1.6755830461820918 10.88117500000342
    vertex 22.086148143165527 -1.6755830461820918 10.88117500000342
  endloop
endfacet
facet normal 0.0 -1.0 -5.020082932157608e-14
  outer loop
    vertex 22.086148143165527 -1.6755830461820918 10.88117500000342
    vertex 60.086148143165516 -1.6755830461820918 10.88117500000342
    vertex 60.086148143165516 -1.6755830461821422 11.88117500000342
  endloop
endfacet
facet normal 0.0 -1.0 -5.020082932157608e-14
  outer loop
    vertex 22.086148143165527 -1.6755830461820918 10.88117500000342
    vertex 60.086148143165516 -1.6755830461821422 11.88117500000342
    vertex 22.086148143165527 -1.6755830461821422 11.88117500000342
  endloop
endfacet
facet normal 0.0 -1.0 -5.020082932157608e-14
  outer loop
    vertex 64.08614814316553 -1.67558304618188 6.881175000003405
    vertex 18.086148143165527 -1.675583046181598 0.8811750000034192
    vertex 64.08614814316553 -1.675583046181598 0.8811750000034192
  endloop
endfacet
facet normal 0.0 -1.0 -5.020082932157608e-14
  outer loop
    vertex 18.086148143165527 -1.675583046181598 0.8811750000034192
    vertex 64.08614814316553 -1.67558304618188 6.881175000003405
    vertex 18.086148143165527 -1.67558304618188 6.881175000003405
  endloop
endfacet
facet normal 0.0 -1.0 -5.020082932157608e-14
  outer loop
    vertex 18.086148143165527 -1.67558304618188 6.881175000003405
    vertex 64.08614814316553 -1.67558304618188 6.881175000003405
    vertex 57.08614814316552 -1.67558304618188 6.881175000003405
  endloop
endfacet
facet normal 0.0 -1.0 -5.020082932157608e-14
  outer loop
    vertex 18.086148143165527 -1.67558304618188 6.881175000003405
    vertex 57.08614814316552 -1.67558304618188 6.881175000003405
    vertex 25.08614814316553 -1.67558304618188 6.881175000003405
  endloop
endfacet
facet normal 1.3047820802462394e-18 -5.019477100198423e-14 1.0
  outer loop
    vertex 22.086148143165527 -1.6755830461821422 11.88117500000342
    vertex 28.586148143165527 0.3244169538178581 11.881175000003504
    vertex 22.086148143165527 44.32441695381787 11.881175000005712
  endloop
endfacet
facet normal 1.3047820802462394e-18 -5.019477100198423e-14 1.0
  outer loop
    vertex 28.586148143165527 0.3244169538178581 11.881175000003504
    vertex 22.086148143165527 -1.6755830461821422 11.88117500000342
    vertex 60.086148143165516 -1.6755830461821422 11.88117500000342
  endloop
endfacet
facet normal 1.3047820802462394e-18 -5.019477100198423e-14 1.0
  outer loop
    vertex 28.586148143165527 0.3244169538178581 11.881175000003504
    vertex 60.086148143165516 -1.6755830461821422 11.88117500000342
    vertex 53.586148143165516 0.3244169538178581 11.881175000003504
  endloop
endfacet
facet normal 1.3047820802462394e-18 -5.019477100198423e-14 1.0
  outer loop
    vertex 53.586148143165516 0.3244169538178581 11.881175000003504
    vertex 60.086148143165516 -1.6755830461821422 11.88117500000342
    vertex 53.586148143165516 42.324416953817874 11.88117500000561
  endloop
endfacet
facet normal 1.3047820802462394e-18 -5.019477100198423e-14 1.0
  outer loop
    vertex 22.086148143165527 44.32441695381787 11.881175000005712
    vertex 28.586148143165527 42.324416953817874 11.88117500000561
    vertex 60.086148143165516 44.32441695381787 11.881175000005712
  endloop
endfacet
facet normal 1.3047820802462394e-18 -5.019477100198423e-14 1.0
  outer loop
    vertex 28.586148143165527 42.324416953817874 11.88117500000561
    vertex 22.086148143165527 44.32441695381787 11.881175000005712
    vertex 28.586148143165527 0.3244169538178581 11.881175000003504
  endloop
endfacet
facet normal 1.3047820802462394e-18 -5.019477100198423e-14 1.0
  outer loop
    vertex 60.086148143165516 44.32441695381787 11.881175000005712
    vertex 28.586148143165527 42.324416953817874 11.88117500000561
    vertex 53.586148143165516 42.324416953817874 11.88117500000561
  endloop
endfacet
facet normal 1.3047820802462394e-18 -5.019477100198423e-14 1.0
  outer loop
    vertex 60.086148143165516 44.32441695381787 11.881175000005712
    vertex 53.586148143165516 42.324416953817874 11.88117500000561
    vertex 60.086148143165516 -1.6755830461821422 11.88117500000342
  endloop
endfacet
facet normal 1.0 2.7646201924772428e-46 -5.507071303803856e-33
  outer loop
    vertex 60.086148143165516 -1.6755830461820918 10.88117500000342
    vertex 60.086148143165516 44.32441695381787 11.881175000005712
    vertex 60.086148143165516 -1.6755830461821422 11.88117500000342
  endloop
endfacet
facet normal 1.0 2.7646201924772428e-46 -5.507071303803856e-33
  outer loop
    vertex 60.086148143165516 44.32441695381787 11.881175000005712
    vertex 60.086148143165516 -1.6755830461820918 10.88117500000342
    vertex 60.086148143165516 44.32441695381792 10.881175000005712
  endloop
endfacet
facet normal -1.0 -2.7646201924772428e-46 5.507071303803856e-33
  outer loop
    vertex 22.086148143165527 44.32441695381787 11.881175000005712
    vertex 22.086148143165527 -1.6755830461820918 10.88117500000342
    vertex 22.086148143165527 -1.6755830461821422 11.88117500000342
  endloop
endfacet
facet normal -1.0 -2.7646201924772428e-46 5.507071303803856e-33
  outer loop
    vertex 22.086148143165527 -1.6755830461820918 10.88117500000342
    vertex 22.086148143165527 44.32441695381787 11.881175000005712
    vertex 22.086148143165527 44.32441695381792 10.881175000005712
  endloop
endfacet
facet normal 1.0 0.0 0.0
  outer loop
    vertex 28.586148143165527 0.32441695381805163 7.881175000003506
    vertex 28.586148143165527 42.324416953817874 11.88117500000561
    vertex 28.586148143165527 0.3244169538178581 11.881175000003504
  endloop
endfacet
facet normal 1.0 0.0 0.0
  outer loop
    vertex 28.586148143165527 42.324416953817874 11.88117500000561
    vertex 28.586148143165527 0.32441695381805163 7.881175000003506
    vertex 28.586148143165527 42.32441695381808 7.881175000005611
  endloop
endfacet
facet normal -1.0 0.0 0.0
  outer loop
    vertex 53.586148143165516 42.324416953817874 11.88117500000561
    vertex 53.586148143165516 0.32441695381805163 7.881175000003506
    vertex 53.586148143165516 0.3244169538178581 11.881175000003504
  endloop
endfacet
facet normal -1.0 0.0 0.0
  outer loop
    vertex 53.586148143165516 0.32441695381805163 7.881175000003506
    vertex 53.586148143165516 42.324416953817874 11.88117500000561
    vertex 53.586148143165516 42.32441695381808 7.881175000005611
  endloop
endfacet
facet normal 6.080645888747093e-46 -5.010359052713007e-14 1.0
  outer loop
    vertex 38.336148143165516 0.32441695381805163 7.881175000003506
    vertex 28.586148143165527 42.32441695381808 7.881175000005611
    vertex 28.586148143165527 0.32441695381805163 7.881175000003506
  endloop
endfacet
facet normal 6.080645888747093e-46 -5.010359052713007e-14 1.0
  outer loop
    vertex 28.586148143165527 42.32441695381808 7.881175000005611
    vertex 38.336148143165516 0.32441695381805163 7.881175000003506
    vertex 38.086148143165516 3.3244169538180497 7.881175000003663
  endloop
endfacet
facet normal 6.080645888747093e-46 -5.010359052713007e-14 1.0
  outer loop
    vertex 38.086148143165516 3.3244169538180497 7.881175000003663
    vertex 38.336148143165516 0.32441695381805163 7.881175000003506
    vertex 44.086148143165516 3.3244169538180497 7.881175000003663
  endloop
endfacet
facet normal 6.080645888747093e-46 -5.010359052713007e-14 1.0
  outer loop
    vertex 44.086148143165516 3.3244169538180497 7.881175000003663
    vertex 38.336148143165516 0.32441695381805163 7.881175000003506
    vertex 43.83614814316552 0.32441695381805163 7.881175000003506
  endloop
endfacet
facet normal 6.080645888747093e-46 -5.010359052713007e-14 1.0
  outer loop
    vertex 44.086148143165516 3.3244169538180497 7.881175000003663
    vertex 43.83614814316552 0.32441695381805163 7.881175000003506
    vertex 53.586148143165516 0.32441695381805163 7.881175000003506
  endloop
endfacet
facet normal 6.080645888747093e-46 -5.010359052713007e-14 1.0
  outer loop
    vertex 44.086148143165516 3.3244169538180497 7.881175000003663
    vertex 53.586148143165516 0.32441695381805163 7.881175000003506
    vertex 44.086148143165516 39.32441695381808 7.881175000005465
  endloop
endfacet
facet normal 6.080645888747093e-46 -5.010359052713007e-14 1.0
  outer loop
    vertex 28.586148143165527 42.32441695381808 7.881175000005611
    vertex 38.086148143165516 39.32441695381808 7.881175000005465
    vertex 38.336148143165516 42.32441695381808 7.881175000005611
  endloop
endfacet
facet normal 6.080645888747093e-46 -5.010359052713007e-14 1.0
  outer loop
    vertex 38.086148143165516 39.32441695381808 7.881175000005465
    vertex 28.586148143165527 42.32441695381808 7.881175000005611
    vertex 38.086148143165516 3.3244169538180497 7.881175000003663
  endloop
endfacet
facet normal 6.080645888747093e-46 -5.010359052713007e-14 1.0
  outer loop
    vertex 38.336148143165516 42.32441695381808 7.881175000005611
    vertex 38.086148143165516 39.32441695381808 7.881175000005465
    vertex 44.086148143165516 39.32441695381808 7.881175000005465
  endloop
endfacet
facet normal 6.080645888747093e-46 -5.010359052713007e-14 1.0
  outer loop
    vertex 38.336148143165516 42.32441695381808 7.881175000005611
    vertex 44.086148143165516 39.32441695381808 7.881175000005465
    vertex 43.83614814316552 42.32441695381808 7.881175000005611
  endloop
endfacet
facet normal 6.080645888747093e-46 -5.010359052713007e-14 1.0
  outer loop
    vertex 43.83614814316552 42.32441695381808 7.881175000005611
    vertex 44.086148143165516 39.32441695381808 7.881175000005465
    vertex 53.586148143165516 42.32441695381808 7.881175000005611
  endloop
endfacet
facet normal 6.080645888747093e-46 -5.010359052713007e-14 1.0
  outer loop
    vertex 53.586148143165516 42.32441695381808 7.881175000005611
    vertex 44.086148143165516 39.32441695381808 7.881175000005465
    vertex 53.586148143165516 0.32441695381805163 7.881175000003506
  endloop
endfacet
facet normal 0.0 1.0 4.995369197656275e-14
  outer loop
    vertex 38.086148143165516 39.32441695381808 7.881175000005465
    vertex 38.336148143165516 39.324416953818435 0.881175000005465
    vertex 38.086148143165516 39.324416953818435 0.881175000005465
  endloop
endfacet
facet normal 0.0 1.0 4.995369197656275e-14
  outer loop
    vertex 38.336148143165516 39.324416953818435 0.881175000005465
    vertex 38.086148143165516 39.32441695381808 7.881175000005465
    vertex 43.83614814316552 39.324416953818435 0.881175000005465
  endloop
endfacet
facet normal 0.0 1.0 4.995369197656275e-14
  outer loop
    vertex 43.83614814316552 39.324416953818435 0.881175000005465
    vertex 38.086148143165516 39.32441695381808 7.881175000005465
    vertex 44.086148143165516 39.324416953818435 0.881175000005465
  endloop
endfacet
facet normal 0.0 1.0 4.995369197656275e-14
  outer loop
    vertex 44.086148143165516 39.324416953818435 0.881175000005465
    vertex 38.086148143165516 39.32441695381808 7.881175000005465
    vertex 44.086148143165516 39.32441695381808 7.881175000005465
  endloop
endfacet
facet normal 0.0 -1.0 -4.9953691976562774e-14
  outer loop
    vertex 43.83614814316552 43.32441695381807 7.881175000005662
    vertex 38.336148143165516 43.32441695381843 0.8811750000056638
    vertex 43.83614814316552 43.32441695381843 0.8811750000056638
  endloop
endfacet
facet normal 0.0 -1.0 -4.9953691976562774e-14
  outer loop
    vertex 38.336148143165516 43.32441695381843 0.8811750000056638
    vertex 43.83614814316552 43.32441695381807 7.881175000005662
    vertex 38.336148143165516 43.32441695381807 7.881175000005662
  endloop
endfacet
facet normal 0.0 1.0 4.980262234356916e-14
  outer loop
    vertex 38.336148143165516 -0.6755830461819469 7.8811750000034575
    vertex 43.83614814316552 -0.6755830461815983 0.8811750000034615
    vertex 38.336148143165516 -0.6755830461815983 0.8811750000034615
  endloop
endfacet
facet normal 0.0 1.0 4.980262234356916e-14
  outer loop
    vertex 43.83614814316552 -0.6755830461815983 0.8811750000034615
    vertex 38.336148143165516 -0.6755830461819469 7.8811750000034575
    vertex 43.83614814316552 -0.6755830461819469 7.8811750000034575
  endloop
endfacet
facet normal 0.0 -1.0 -5.005440506522519e-14
  outer loop
    vertex 44.086148143165516 3.3244169538180497 7.881175000003663
    vertex 43.83614814316552 3.3244169538184014 0.8811750000036701
    vertex 44.086148143165516 3.3244169538184014 0.8811750000036701
  endloop
endfacet
facet normal 0.0 -1.0 -5.005440506522519e-14
  outer loop
    vertex 43.83614814316552 3.3244169538184014 0.8811750000036701
    vertex 44.086148143165516 3.3244169538180497 7.881175000003663
    vertex 38.336148143165516 3.3244169538184014 0.8811750000036701
  endloop
endfacet
facet normal 0.0 -1.0 -5.005440506522519e-14
  outer loop
    vertex 38.336148143165516 3.3244169538184014 0.8811750000036701
    vertex 44.086148143165516 3.3244169538180497 7.881175000003663
    vertex 38.086148143165516 3.3244169538184014 0.8811750000036701
  endloop
endfacet
facet normal 0.0 -1.0 -5.005440506522519e-14
  outer loop
    vertex 38.086148143165516 3.3244169538184014 0.8811750000036701
    vertex 44.086148143165516 3.3244169538180497 7.881175000003663
    vertex 38.086148143165516 3.3244169538180497 7.881175000003663
  endloop
endfacet
facet normal 0.0 5.216937992713612e-14 -1.0
  outer loop
    vertex 43.83614814316552 3.3244169538184014 0.8811750000036701
    vertex 38.336148143165516 -0.6755830461815983 0.8811750000034615
    vertex 38.336148143165516 3.3244169538184014 0.8811750000036701
  endloop
endfacet
facet normal 0.0 5.216937992713612e-14 -1.0
  outer loop
    vertex 38.336148143165516 -0.6755830461815983 0.8811750000034615
    vertex 43.83614814316552 3.3244169538184014 0.8811750000036701
    vertex 43.83614814316552 -0.6755830461815983 0.8811750000034615
  endloop
endfacet
facet normal 0.0 4.93494134445883e-14 -1.0
  outer loop
    vertex 43.83614814316552 43.32441695381843 0.8811750000056638
    vertex 38.336148143165516 39.324416953818435 0.881175000005465
    vertex 38.336148143165516 43.32441695381843 0.8811750000056638
  endloop
endfacet
facet normal 0.0 4.93494134445883e-14 -1.0
  outer loop
    vertex 38.336148143165516 39.324416953818435 0.881175000005465
    vertex 43.83614814316552 43.32441695381843 0.8811750000056638
    vertex 43.83614814316552 39.324416953818435 0.881175000005465
  endloop
endfacet
facet normal -4.40760960729359e-31 -1.0 -5.019765037459765e-14
  outer loop
    vertex 53.586148143165516 42.324416953817874 11.88117500000561
    vertex 43.83614814316552 42.32441695381808 7.881175000005611
    vertex 53.586148143165516 42.32441695381808 7.881175000005611
  endloop
endfacet
facet normal -4.40760960729359e-31 -1.0 -5.019765037459765e-14
  outer loop
    vertex 43.83614814316552 42.32441695381808 7.881175000005611
    vertex 53.586148143165516 42.324416953817874 11.88117500000561
    vertex 38.336148143165516 42.32441695381808 7.881175000005611
  endloop
endfacet
facet normal -4.40760960729359e-31 -1.0 -5.019765037459765e-14
  outer loop
    vertex 38.336148143165516 42.32441695381808 7.881175000005611
    vertex 53.586148143165516 42.324416953817874 11.88117500000561
    vertex 28.586148143165527 42.32441695381808 7.881175000005611
  endloop
endfacet
facet normal -4.40760960729359e-31 -1.0 -5.019765037459765e-14
  outer loop
    vertex 28.586148143165527 42.32441695381808 7.881175000005611
    vertex 53.586148143165516 42.324416953817874 11.88117500000561
    vertex 28.586148143165527 42.324416953817874 11.88117500000561
  endloop
endfacet
facet normal 0.0 -5.0197650374597654e-14 1.0
  outer loop
    vertex 43.83614814316552 42.32441695381808 7.881175000005611
    vertex 38.336148143165516 43.32441695381807 7.881175000005662
    vertex 38.336148143165516 42.32441695381808 7.881175000005611
  endloop
endfacet
facet normal 0.0 -5.0197650374597654e-14 1.0
  outer loop
    vertex 38.336148143165516 43.32441695381807 7.881175000005662
    vertex 43.83614814316552 42.32441695381808 7.881175000005611
    vertex 43.83614814316552 43.32441695381807 7.881175000005662
  endloop
endfacet
facet normal -1.1419931773186462e-31 1.0 4.8732545776530883e-14
  outer loop
    vertex 28.586148143165527 0.3244169538178581 11.881175000003504
    vertex 38.336148143165516 0.32441695381805163 7.881175000003506
    vertex 28.586148143165527 0.32441695381805163 7.881175000003506
  endloop
endfacet
facet normal -1.1419931773186462e-31 1.0 4.8732545776530883e-14
  outer loop
    vertex 38.336148143165516 0.32441695381805163 7.881175000003506
    vertex 28.586148143165527 0.3244169538178581 11.881175000003504
    vertex 43.83614814316552 0.32441695381805163 7.881175000003506
  endloop
endfacet
facet normal -1.1419931773186462e-31 1.0 4.8732545776530883e-14
  outer loop
    vertex 43.83614814316552 0.32441695381805163 7.881175000003506
    vertex 28.586148143165527 0.3244169538178581 11.881175000003504
    vertex 53.586148143165516 0.32441695381805163 7.881175000003506
  endloop
endfacet
facet normal -1.1419931773186462e-31 1.0 4.8732545776530883e-14
  outer loop
    vertex 53.586148143165516 0.32441695381805163 7.881175000003506
    vertex 28.586148143165527 0.3244169538178581 11.881175000003504
    vertex 53.586148143165516 0.3244169538178581 11.881175000003504
  endloop
endfacet
facet normal 0.0 -4.873254577653089e-14 1.0
  outer loop
    vertex 43.83614814316552 -0.6755830461819469 7.8811750000034575
    vertex 38.336148143165516 0.32441695381805163 7.881175000003506
    vertex 38.336148143165516 -0.6755830461819469 7.8811750000034575
  endloop
endfacet
facet normal 0.0 -4.873254577653089e-14 1.0
  outer loop
    vertex 38.336148143165516 0.32441695381805163 7.881175000003506
    vertex 43.83614814316552 -0.6755830461819469 7.8811750000034575
    vertex 43.83614814316552 0.32441695381805163 7.881175000003506
  endloop
endfacet
facet normal 1.0 0.0 0.0
  outer loop
    vertex 38.086148143165516 3.3244169538184014 0.8811750000036701
    vertex 38.086148143165516 39.32441695381808 7.881175000005465
    vertex 38.086148143165516 3.3244169538180497 7.881175000003663
  endloop
endfacet
facet normal 1.0 0.0 0.0
  outer loop
    vertex 38.086148143165516 39.32441695381808 7.881175000005465
    vertex 38.086148143165516 3.3244169538184014 0.8811750000036701
    vertex 38.086148143165516 39.324416953818435 0.881175000005465
  endloop
endfacet
facet normal -1.0 0.0 0.0
  outer loop
    vertex 44.086148143165516 39.32441695381808 7.881175000005465
    vertex 44.086148143165516 3.3244169538184014 0.8811750000036701
    vertex 44.086148143165516 3.3244169538180497 7.881175000003663
  endloop
endfacet
facet normal -1.0 0.0 0.0
  outer loop
    vertex 44.086148143165516 3.3244169538184014 0.8811750000036701
    vertex 44.086148143165516 39.32441695381808 7.881175000005465
    vertex 44.086148143165516 39.324416953818435 0.881175000005465
  endloop
endfacet
endsolid arca-swiss-plate-46mm
